<?xml version="1.0" encoding="utf-8"?>
<!-- Generator: Adobe Illustrator 25.0.0, SVG Export Plug-In . SVG Version: 6.00 Build 0)  -->
<svg version="1.1" id="Слой_1" xmlns="http://www.w3.org/2000/svg" xmlns:xlink="http://www.w3.org/1999/xlink" x="0px" y="0px"
	 viewBox="0 0 512 512" style="enable-background:new 0 0 512 512;" xml:space="preserve">
<style type="text/css">
	.st0{fill:#D3B47D;}
	.st1{fill:#DEBF86;}
	.st2{fill:#887249;}
</style>
<g>
	<path class="st0" d="M987.4268799,750.3587646c-0.758728,0.5274658-1.517395,1.0548706-2.5192871,1.7512207
		c5.007019,0.9642944,9.6932983,1.8667603,14.3796997,2.7692261c12.6028442,2.9610596,25.5045776,3.276001,38.3495483,4.3224487
		c24.6936035,3.9262695,49.6286621,5.1912842,74.46875,7.3598633c15.7290039,1.37323,31.2081299,4.7213745,47.1125488,4.9813232
		c7.2059326,0.1177979,9.0592041,7.1574707,9.5314941,13.2060547c0.7189941,9.2050781,0.5211182,18.4896851,0.1560059,27.7113647
		c-0.3432617,8.6625366-6.8455811,15.9456177-15.5827637,15.635498
		c-23.9758301-0.8509521-47.2080078,5.2705078-70.8920898,6.4272461c-2.1627197-0.0056152-4.3477783,0.8153076-7.0324707-0.0229492
		c3.8604736,1.9009399,7.5822754,1.1863403,11.1938477,1.5748901c12.9831543,0.3388672,25.8168945,2.1513672,38.4206543,4.7071533
		c6.3256836,1.2827148,12.4973145,1.1939697,18.7244873,1.4725952c16.1507568,0.72229,23.6696777,8.7227173,24.9487305,25.0807495
		c1.5010986,19.1943359-1.80896,38.2053223-1.1524658,57.3067627c0.385376,11.2178345-0.1931152,22.5441895,2.4182129,33.6081543
		c0.9251709,18.6049805,1.0007324,37.2259521,0.5047607,55.8502197c-0.2614746,1.1461792-0.4342041,2.3010864-0.5637207,3.4619141
		c-0.8240967,4.0646362-1.4008789,8.1627197-1.6962891,12.3066406c-1.2556152,30.9091797,0.2963867,61.8231201-0.2097168,92.7346191
		c-0.0738525,4.5234375-0.4918213,8.9844971-0.9356689,13.4447021c-0.1408691,7.1768799,0.6295166,14.4260254-2.5769043,21.3283691
		c-1.0976562,2.3631592-0.9508057,5.399292,0.1921387,7.8344727c4.6025391,9.8067627,0.845459,19.6270752,0.1115723,29.3811035
		c-0.5263672,6.9951172-5.1606445,10.5784912-12.1936035,10.3657227
		c-11.0651855-0.3348389-22.1408691,0.2215576-33.1762695,0.3934326
		c-27.2637939,0.4249268-54.5568848,1.5783691-82.5306396,4.9382324c2.4401855,1.0556641,4.1080322,1.2009277,5.7709961,1.4769287
		c23.5537109,4.7679443,47.5152588,4.6812744,71.3061523,6.5969238c11.8579102,0.9543457,23.6881104,2.4342041,35.5775146,3.3095703
		c12.2209473,0.8996582,12.8220215,2.9343262,15.1904297,14.4506836c3.3082275,16.0861816,3.477417,32.0828857,2.3482666,48.272583
		c-0.6547852,9.3885498,3.8116455,18.1170654,3.8754883,27.3988037c0.145874,21.1943359-1.7077637,42.3632812-0.8242188,63.5756836
		c0.2175293,5.2165527-2.4909668,8.640625-7.5163574,10.4412842c-7.8609619,2.8173828-16.0009766,5.1630859-24.223999,5.0507812
		c-13.3294678-0.1815186-26.6724854-0.7541504-40.0095215-1.1759033c-5.8128662-0.1837158-10.637085-2.7537842-14.8183594-6.5986328
		c-4.3956299-2.9249268-5.4846191-8.5292969-9.4440918-11.8168945c-1.8051758-0.3616943-3.1280518,0.777832-4.5968018,1.4838867
		c-5.9140625,1.651123-10.2038574,5.9121094-14.2689209,9.9534912c-3.3527832,3.3334961-6.7895508,4.9155273-11.2651367,5.0385742
		c-44.9934692,1.3450928-89.9155884-0.840332-134.8529053-1.8173828
		c-21.8340454-0.4744873-43.4776611,5.9477539-65.3704224,1.9810791
		c-22.2106934-4.0241699-44.3034668,1.0791016-66.538208,0.6116943
		c-34.946228-0.7351074-69.8551636-3.1182861-104.8345947-2.7521973
		c-15.3141479,0.1601562-16.8630981-1.7342529-18.9061279-16.8349609c-1.388916-10.2663574-1.1856079-20.6558838-2.388855-30.072876
		c-0.0493164,6.8891602,3.3031006,14.8492432-1.6478271,22.2651367c-6.2150269,0.1212158-5.1511841-4.6702881-5.3932495-8.2852783
		c-0.5028687-7.5102539,0.4992676-15.0732422-0.6619263-22.5428467c-0.237854-0.9432373-0.3605347-1.9261475,0.0257568-5.1276855
		c1.4162598,19.4946289-4.1258545,36.0911865-5.4040527,53.1209717c-0.4699707,6.2633057-6.6824951,8.9268799-12.7249146,9.2050781
		c-27.1112061,1.2484131-54.27771,3.7165527-81.2383423-1.6755371c-11.6522827-2.3303223-22.6870117-1.3381348-34.3691406,1.6287842
		c-15.234375,3.8686523-31.2706299,1.7401123-46.9486694,1.0748291c-8.3425903-0.354126-9.0869141-8.7764893-12.987854-13.7780762
		c-2.2569275,0.6829834-4.4866028,0.2009277-6.6702271,0.6241455
		c-13.8648071,8.4199219-28.9797974,10.4537354-44.9931946,10.8040771
		c-60.9378052,1.3330078-121.8699646-0.1411133-182.7767029-0.8430176
		c-28.6032257-0.3295898-57.2672577-0.7208252-85.8957062-1.4224854
		c-13.7427063-0.3370361-27.3025284,0.8227539-40.6949844,3.8543701
		c-9.8498077,2.2298584-19.3041306,1.0267334-28.7605972-2.2991943c-8.4090729-2.9576416-12.220665-8.4260254-12.0536003-17.3297119
		c0.1461334-7.7836914,0.6162643-15.6297607-0.6857224-20.6881104c1.3578377,9.3637695,0.1242142,21.5709229,1.9264259,33.6173096
		c0.5884285,3.9326172,0.3294334,8.1469727-4.3801804,10.092041c-0.5635834-0.0715332-1.1065979-0.21875-1.6291618-0.4415283
		c-0.9260406-0.6549072-1.6897736-1.4627686-2.2912636-2.4238281c-1.430294-3.779541-0.7263184-7.7312012-0.9408112-11.6065674
		c-1.5148354-7.8985596-2.4015656-15.8131104-0.4455948-23.6008301c-0.9765816,8.8372803-3.3736877,17.1702881-6.0880852,25.4033203
		c-1.9537106,5.9255371-6.0015278,8.8218994-12.5315437,9.4310303c-14.5815163,1.3592529-29.1427689,1.4752197-43.7154961,0.5738525
		c-12.6464195-0.7822266-15.4548798-3.6661377-17.3549385-16.3978271c-0.465065-3.116333,0.0532913-7.1871338-5.2374878-6.4312744
		c-9.9433212,17.9577637-26.2184601,20.5565186-44.83564,20.5770264
		c-22.9761887,0.0251465-45.8371964-1.7314453-68.7507553-2.4724121
		c-28.9139862-0.9350586-57.4755402,5.005127-86.4530334,3.0343018
		c-19.8908386-1.3526611-39.8407593-2.0948486-59.6530457-4.3166504c-19.5108337-2.1876221-38.3847046,2.78125-57.5789185,4.0101318
		c-18.9406433,1.2125244-37.9124756,0.5561523-56.8547058,0.5137939
		c-13.3888855-0.0300293-18.7870483-5.6407471-23.1533203-19.9415283c-2.7641907-9.0533447-6.0682678-17.953125-7.746521-27.2414551
		c-0.6176758-0.4676514-1.3594971-0.8095703-2.1604614-0.9150391c-0.7429199,0.1813965-1.4359741,0.4954834-2.0534058,0.9848633
		c-2.3113098,3.1655273-1.059906,6.8144531-1.4343262,10.2652588c-1.6071167,10.1691895-0.2063599,20.5957031-3.6799011,30.6274414
		c-1.68927,4.8790283-3.7916565,6.9438477-9.0150146,6.8010254c-45.5722961-1.2467041-91.1428528,1.5915527-136.7130432,0.2094727
		c-11.3473511-0.3443604-22.8267212-0.1298828-33.9549561-2.9158936
		c-11.9588013-2.9937744-14.0383301-5.7528076-14.4215698-17.9570312
		c-0.1777954-5.6602783,0.0137939-11.2947998,0.7348633-16.9475098c2.5721436-20.1651611,4.807312-40.1968994-0.0309448-60.557251
		c-2.9470825-12.4017334,1.0200806-25.1776123,1.9592285-37.7554932
		c1.2697144-17.0053711,2.5597534-33.8796387-1.8830566-50.6219482c-0.5131836-1.93396-0.8024902-3.9493408-0.7150269-5.9416504
		c1.2556152-28.5864258-3.1073608-57.1295166-0.3057861-85.7739258c0.9214478-9.4216309,4.8959961-14.09375,13.6152954-17.0875244
		c18.1785889-6.2416992,37.409729-4.0631104,55.8391113-7.9822998c5.0953979-1.0837402,10.3674316-1.3231201,15.0302734-3.4338379
		c-1.5442505-1.7259521-3.9855957-2.4384766-4.9882812-4.5683594c-10.9645996-6.9342041-23.8284302-4.6424561-35.6636353-7.0231934
		c-7.4933472-1.5074463-15.8464966-0.5756836-23.7976685,0.1323242
		c-10.2225952,0.9101562-16.5476685-3.2171631-19.6296387-12.7199707
		c-2.838623-8.7528076-2.5523071-17.7487793-1.9230347-26.7338867c2.5324707-36.1619873,4.4967041-72.1815186,0.77948-108.5518799
		c-1.6809692-16.4469604,3.2351074-33.5308838,3.8314209-50.4666748c0.1723633-4.8949585,4.1066284-7.1726685,9.2815552-7.8117676
		c15.897644-1.9630127,31.6663208-5.05896,47.7476807-5.0257568c3.6430054-0.0512695,7.2906494-0.4078369,10.7153931-0.8210449
		c-0.6834106-0.225769-1.1557007-0.3735352-1.7889404-0.49646c-9.4412231-0.7797852-18.6525879-2.1488037-27.8496704-3.6428223
		c-26.5921631-4.3201904-41.3641968-19.3519897-42.5756226-46.6478271
		c-1.0891113-24.538269-1.9949341-49.2037354,1.2012939-73.7603149c2.9689941-22.8109131,3.8277588-45.5998535,0.8672485-68.6102295
		c-1.6881104-13.1204834-1.7575684-26.6405029,0.730896-39.8065186c2.9284058-15.4939575-0.1929321-31.2141724,2.4151001-46.6962891
		c2.1143799-12.5514526,6.9061279-17.0662231,19.7476196-18.3050537
		c30.6599731-2.9576416,61.5583496-1.2143555,92.1954346-4.8616333c10.1740723-1.2110596,20.2855225-3.2548828,30.5740662-3.1633911
		c9.8037109,0.3913574,19.1522217-2.4094238,28.4356689-4.382019c-0.1980591-0.0513916-0.2347107-0.6880493-0.3962708-0.718811
		c-12.5541077-3.9274292-25.4296265-5.0510254-38.2435303-5.7731934
		c-34.4595947-1.9420776-68.9470215-3.0966797-103.4817505-3.1577148
		c-24.7051392-0.0435181-37.8468628-14.208252-33.1702881-38.2415161
		c4.2710571-21.9491272-0.3786011-43.573761,1.5543213-65.2554016c-0.2324829-11.7402649,1.2728882-22.87854,10.0881958-31.8195496
		c5.7000732-5.7816772,13.942749-7.4163513,19.9351807-12.6521301c1.9946289-0.6209106,3.9891968-1.2418213,5.9838257-1.8628845
		c5.2802124,3.1934204,9.3977051,0.2544556,13.5379028-2.5649109c6.1150513-1.7934265,12.2301025-3.5868835,18.3451538-5.3803101
		c-11.7427368-8.2697144-25.7387695-9.8350525-39.1841431-12.7616882
		c-9.2444458-2.0122375-17.5893555-6.2967834-26.5377808-8.9744873c-4.1644287-1.2462158-5.022644-4.4144897-4.8677368-8.5596619
		c1.2944946-34.6360168,0.9534302-69.322937,2.1661987-103.9355316c0.8503418-24.268158,2.885376-48.6019745,1.0253296-72.7457733
		c-2.0408936-26.4917603-0.5177002-52.9917679-2.3872681-79.4466705c-0.744812-10.5390854,0.000061-21.3609161,2.2936401-31.7286606
		c5.6783447-25.6682701,5.5238037-51.3985329,3.1309814-77.3981247c-1.1514282-12.5113525-1.618103-25.2287598,1.6113892-37.7205887
		c1.367981-5.2913246,3.9954224-7.8164749,9.6254883-8.9805069c24.8897095-5.1459808,50.2911987-5.5354538,75.3770752-8.7483978
		c1.9233398-0.2462692,4.0343628,0.4394455,5.6246948-1.2617798c5.2679443-0.9684143,10.5358276-1.936821,15.8145752-2.9072495
		c-2.6149292-0.8049393-5.3016968-1.6320343-7.9884644-2.4590683c-3.5023193-3.0603333-7.8052368-2.1622162-11.9012451-2.399147
		c-23.4263916-2.8616638-46.7597046-6.3939743-70.3043213-7.9483948
		c-19.5872803-1.2932739-22.9143066-14.1911697-21.6504517-26.7504196
		c1.2985229-12.9038849,2.2843628-25.8585815,4.9622192-38.602417c1.8615112-8.8586578,1.7481079-17.7202911,0.6566772-26.7842102
		c-3.0296631-25.1587219-4.5276489-50.3529968,1.0476074-75.4652863c1.3740234-6.1888733,0.4845581-12.5851746-0.3380127-18.8961487
		c-3.3155518-25.439209-5.3632202-50.9711304-4.9733276-76.6511536
		c0.3347168-22.0461426,6.3328857-30.1008606,27.3544312-36.8337708c6.6983032-2.1453857,13.2375488-4.8114624,19.1193237-8.5495605
		c13.3404541-8.4784546,28.3719482-10.0762634,43.4707031-12.3050232
		c16.0172119-2.3643799,32.3192139-2.4140015,48.1552734-6.1904602c2.1575012-0.5145264,3.6331177-1.255127,4.563385-3.1714783
		c-2.4932251-5.1825562-8.4186096-2.7392273-12.0401306-5.4148865c-10.9609985-5.0552063-22.9915771-6.3830566-34.5811157-7.6267395
		c-26.6192017-2.8566284-52.7565308-8.9274902-79.4899292-10.9088135
		c-11.2546997-0.8341675-16.315979-7.4654236-16.3312988-18.7129517
		c-0.0082397-6.0470886,1.4837036-11.8827515,2.4972534-17.7797852c1.2001953-6.9826965,1.5109253-13.9512634-0.4351807-20.8041077
		c-8.0023193-28.1784668-5.0287476-56.9924927-3.0872192-85.3389282c1.128418-16.4752808,2.706665-33.1171875,4.1767578-49.6531372
		c3.6599121-41.1669922,3.8083496-82.401062-0.9624023-123.5516968c-0.6149902-5.3046265-0.7926636-10.6807861-0.1228638-15.960144
		c3.2514648-25.628479-0.133728-51.1234131-1.4108887-76.6535645c-0.2520752-5.0391235-0.4916992-9.9032593,1.1651001-14.7762451
		c2.2302246-6.5597534,6.6379395-9.96875,13.5194092-10.7376099c29.5985718-3.3070679,59.1965942-0.4916382,88.7987061-0.3720093
		c11.4931641,0.0464478,9.6056519,9.7905884,13.3921509,15.4421387c1.2272949,1.0471191,2.6132812,1.3118286,4.1509399,0.6795044
		c3.1609497-13.1294556,12.7515869-13.9796143,24.2322998-14.7096558
		c24.8631897-1.5809937,49.6106262-0.0543213,74.4125366,0.241394c38.9361877,0.4642944,77.8623962-1.835144,116.801239-0.9627075
		c31.4067993,0.7036743,62.7682495,4.7800293,94.1879883,2.8591919
		c37.4534454-2.2897949,74.8956299-4.8514404,112.4155579-3.8434448
		c23.7050629,0.6368408,47.3930397,1.9827271,71.1198425,2.3085327c10.7478294,0.147644,14.0481472,3.055603,14.6751518,13.359375
		c0.6240139,10.255249,3.6131516,20.06604,4.5089149,30.0477905c0.368866-1.3015137,1.0165634-2.2457275,1.9679346-3.0361328
		c0.8844109-0.4389648,1.7705917-0.512085,2.6290607-0.2989502c0.1811056,0.190918,0.4815454,0.3848877,0.6404333,0.6605225
		c0.4765406,0.826355,0.2842636,0.7358398,0.0708065-0.4209595c-1.9985161-10.8320312,2.4638863-21.0106201,3.5273275-31.5402832
		c0.3116713-3.0865479,3.2727289-6.5083618,7.4521484-7.1704712c20.2025795-3.5117188,40.4085846-0.6467285,60.6004219-0.130127
		c33.1589699,0.8483887,66.2686157-0.727356,99.3995514-1.5390015c23.2644806-0.5699463,46.4667053,2.6315918,69.7745819,1.821167
		c28.6124573-0.994812,57.1789246-0.9036865,85.7675781,1.6928101c30.5137939,2.7713623,60.913147-2.6816406,91.4195557-2.6623535
		c25.2078552,0.0159912,50.4595642-1.2202148,75.6088562,0.5474854c18.6231079,1.309021,18.2962952-1.3959351,22.7088928,19.1188354
		c0.8894653,7.7657471,2.409729,15.4543457,3.6523743,23.1647339c-0.0136719,1.2489624-0.0450439,2.5222168,0.0710754,4.0523682
		c0.4571838-2.9019775,0.3718567-5.5779419,0.420929-8.2566528c-0.1528625-9.2695923,1.7055664-18.2347412,3.9352417-27.151062
		c1.2835693-5.1331787,2.8771973-9.8942261,9.472229-10.0050659c7.0090942-0.1177979,14.3117065-1.5975952,18.508728,6.696106
		c1.3833008,2.7337646,3.2255859,5.4285278,5.2304077,7.8668213c-1.059021,0.5806274,2.4967041,18.829834,3.0899048,19.4742432
		c0.5968628-0.5797119,0.2723999-18.6480103,0.4330444-19.3303223c0.8183594-3.4762573,1.4273682-7.00177,2.1096802-10.5100708
		c7.2858887,4.4734497,1.7798462,10.7247925,2.3713989,15.237854c-0.0264893,0.2178955,0.1002808-0.4671021,0.2258911-1.1533813
		c3.6004028-19.6951294,0.5164795-21.7671509,25.836792-19.1976929c20.5837402,2.0888062,41.1960449,3.2355957,61.5886841,1.0823364
		c25.0582275-2.6459351,50.0811157-0.8112793,75.0883179-2.0510254c33.4848022-1.6599731,66.8856201-0.2001953,100.239502,3.0966187
		c7.9302368,0.7838135,16.0910645,1.0915527,23.9085083-0.7755127c16.8878174-4.0332642,32.2868042-3.4914551,43.793457,11.805481
		c4.2539062,1.5037231,5.7113037-0.7908936,7.1505127-4.4266968c2.5515747-6.446167,7.6258545-9.1305542,14.7088623-9.2598267
		c11.7363892-0.2142334,23.4771118-0.0401611,35.2177124-1.2663574c12.9492798-1.352478,25.0983887,0.098999,30.2659302,14.994751
		c1.1735229-0.0561523,2.3471069-0.1122437,3.5206299-0.168396c0.8403931-0.5326538,2.0700073-1.0205688,2.1348267-1.9691772
		c0.8078003-11.815918,8.5386963-12.2304077,17.8046875-11.6365967c41.2650757,2.6444702,82.543396,0.0117188,123.8179321-0.0389404
		c11.671875-0.0143433,23.3575439,0.8034668,35.0245361,1.3699341c11.7694092,0.5714722,16.293457,5.1245728,16.2587891,16.921814
		c-0.071167,24.269104-0.901001,48.5447998-5.166748,72.5148926c-1.6508789,9.2759399-1.9613037,18.3421021-0.6635742,27.7335815
		c3.7045898,26.8094482,2.7041016,53.741272,0.7913818,80.6361694c-0.4265137,5.9960327-1.375,12.0848999,0.1168213,17.8919678
		c5.3162842,20.696228,2.9077148,41.72052,2.942627,62.6065063c0.0245361,14.6916504-6.2999268,20.9266357-21.1195068,20.2935181
		c-24.2124023-1.0343628-47.5838623,4.2523804-71.2347412,7.6812744c-3.8059082,0.5517578-6.8325195,2.4033813-10.0579834,3.640625
		c0.8010254-1.2276001,0.2026367,1.3914795-0.6650391,0.3793945c-0.8677979-1.012146-1.6107178,0.2682495-0.4039307,0.1942749
		c2.050415-0.1256104,3.5993652,0.3699341,4.890625,1.8861694c0.7397461,0.5656738,1.4794922,1.1314087,2.2192383,1.6970215
		c7.7026367,3.2991943,16.0532227,3.5639648,24.1271973,4.2249146c19.9619141,1.6340942,39.6424561,5.1213989,59.3562012,8.2695923
		c13.3686523,2.1349487,14.8244629,4.9863892,13.6135254,18.1449585c-0.2137451,2.3233032-0.3796387,4.6472778-0.4195557,6.9796143
		c-0.55896,32.6080017-1.8319092,65.3277893-1.2044678,97.8007812c0.737793,38.1906433-1.2889404,76.5903625,3.3774414,114.6995544
		c0.2821045,2.3025208,0.6252441,4.5852966,0.4880371,6.9519958c-1.1463623,19.7728577-5.1700439,23.4928589-24.8724365,25.7379456
		c-24.6481934,2.8086243-49.5531006,3.435791-73.9384766,8.5195923c-1.9654541,0.4098511-3.9416504,0.7117004-5.2983398,2.2070618
		c0.1053467,0.6958313,0.1815186,1.3379211,0.5743408,1.9552307c3.5700684,2.4665222,7.1535645,3.3765869,11.5650635,3.4657593
		c25.821167,0.5213928,51.0301514,6.6175842,76.6722412,8.9511414c7.6727295,0.6982269,12.9832764,4.7482147,12.0889893,12.8627014
		c-2.9295654,26.5796814,2.6558838,53.1913452-0.052124,79.6006165
		c-2.9770508,29.0300903,0.4975586,57.7890854,1.3355713,86.6268539c0.868042,29.8691444,1.8846436,59.5369949-0.824707,89.4633789
		c-2.6518555,29.2918015-6.3996582,58.8089981-1.9538574,88.3491364c0.6396484,4.2502441-1.3220215,6.9691849-4.3052979,9.3641281
		c-12.2163086,4.6788864-24.7495117,5.4243393-37.7885742,4.3640976
		c-14.1848145-1.1534805-28.3900146,1.8650589-42.4750977,2.2810211
		c-18.2362061,0.538475-36.3865967,3.9720612-54.7202148,2.2408066c-1.6020508-0.1513824-3.7843628-0.2540131-5.3504028,0.7535706
		c2.3491821-0.3535995,4.4785767,0.1349106,5.8095093,2.5279541c0.0743408,0.5128632,0.119751,1.0282135,0.1363525,1.5460663
		c2.1741943,2.3882294,5.1795654,1.9895477,7.927124,2.2424622c37.4171143,3.4434052,74.9714355,5.2128448,112.3463135,9.1816711
		c15.5184326,1.6478424,18.6068115,5.5892181,15.7574463,20.5099792c-0.9447021,4.9466858-1.8217773,9.9137573-0.6323242,14.8604584
		c5.2237549,21.7220154,3.4870605,43.6799316,2.3076172,65.6041565c-0.3286133,6.1103058,0.5620117,11.9422455,2.2147217,17.7353821
		c2.9777832,10.4387512,4.4455566,21.2322998,1.041626,31.5435181c-6.0999756,18.4780884-2.7581787,36.963623-1.3880615,55.4180298
		c1.3348389,17.9802856,2.119873,35.9335022-0.1821289,53.8099365c-1.6477051,12.7969666-0.1600342,25.5072937,1.9631348,37.7677002
		c3.3828125,19.5323181,0.776123,38.4319153-1.7452393,57.5340881c-0.6561279,4.9709778-1.411499,10.004303-0.7296143,14.9319763
		c1.7099609,12.355957,0.9349365,24.5289307-1.3435059,36.718689c-0.9265137,4.9575195-0.3259277,9.965271,0.767334,14.8818359
		c3.5175781,15.8179321,3.1500244,31.7825928,1.1650391,47.6854858c-1.1767578,9.4273071,0.9150391,18.5944824,0.9156494,27.8562012
		c0.0015869,27.0387573,0.7938232,54.0658569,1.1376953,81.095459c0.1114502,8.7519531-2.9656982,12.0465698-11.0148926,13.2761841
		c-8.0374756,1.2276611-16.1092529,2.0438232-24.1383057,1.6396484
		c-19.8466797-0.9989624-39.0750732,3.7623901-58.6016846,5.6413574
		c-20.1413574,1.9379272-40.2069092,4.675415-60.2773438,7.2042236
		C1005.6751709,747.739624,996.1422729,746.3753052,987.4268799,750.3587646z"/>
	<path class="st1" d="M-420.1152039-83.7366714c-2.1298218-0.7086563-4.2106323-1.6816406-6.396759-2.0861282
		c-31.1006165-5.7543259-62.2420654-11.2919159-93.3146973-17.19207c-13.690979-2.5997162-27.3664551-5.4569855-40.8278809-9.029686
		c-9.5819702-2.5430298-13.3746338-8.3474503-11.8546753-17.7435455
		c1.8998413-11.7450409,1.2940063-22.9788055-1.6787109-34.5571289c-2.2072144-8.5968933-2.5587158-17.7888336-2.7543945-26.7371826
		c-0.112793-5.1606903,1.2136841-10.5270538,2.7993774-15.5124969c2.8200073-8.8663483,6.5941772-17.4294891,9.413147-26.2961426
		c1.057312-3.3256989,1.1531982-7.2260742,0.6658325-10.7221985c-1.3946533-10.0050507-1.8742676-19.7428589,1.645752-29.5655823
		c1.2505493-3.4895935,1.7883911-8.8350525-0.0272217-11.5294495c-6.0612183-8.9950867-4.755127-19.2659912-6.3358765-28.9214172
		c-2.7859497-17.0175171-2.7393799-34.5075989-10.776062-50.4927979c-2.706543-5.3833923,0.6945801-12.190094,6.9719238-14.5336609
		c8.0235596-2.9955139,15.9179077-6.6674194,25.0145874-5.9494934c7.2878418,0.5751648,14.6586304,0.0352783,21.9907837,0.1300354
		c12.3379517,0.1594543,24.5814514,0.1848755,36.5863953-3.7032776c4.9833984-1.6140442,10.5356445-1.3863525,15.7513428-2.397583
		c4.1767578-0.8097839,8.4786987-1.6984558,12.3075562-3.4593811c24.3807068-11.2127686,49.4945984-18.647522,76.7249146-18.5961914
		c23.9519653,0.045166,47.9501648-0.5661926,71.8464966-2.1306458c20.5424805-1.3449097,40.9752197-4.400238,61.4410858-6.8287354
		c2.4748993-0.2936707,4.8538818-1.3949585,8.6156616-2.523407c-7.1417236-5.3146057-14.4853973-6.2807922-21.3121185-7.6838989
		c-26.8467407-5.5178528-53.0414429-12.9223022-77.3141479-25.8629761
		c-19.5761719-10.4367371-40.648407-16.4609985-61.862915-22.0569153
		c-18.958374-5.000824-38.0354309-9.6282959-57.2189026-13.6668396c-9.0593262-1.907196-18.4882202-2.0708923-27.7533569-2.9871521
		c-7.2813416-0.7200928-14.56604-1.870575-21.8537292-1.9061279c-5.1991882-0.0254211-10.4007874,1.5155029-15.6112366,2.2902222
		c-2.5963135,0.3859863-5.3135376,1.2270813-7.8070679,0.8222961c-12.482605-2.0262146-24.8995361-4.453064-37.3599243-6.6218262
		c-5.9910889-1.0427856-9.1205444-4.5454407-10.7179565-10.3315735c-4.8060913-17.4087524-7.8004761-34.9615479-6.755127-53.1392822
		c0.321106-5.5842285-0.9191895-11.2453003-1.2529297-16.8825684c-1.2288208-20.758667,2.5198975-41.1351318,4.8446045-61.6207275
		c1.0872803-9.581604,1.6950073-19.2412109,3.2971191-28.734375c1.7625732-10.4437256,3.9480591-20.8676758,6.7880859-31.0668335
		c5.0772095-18.2332764,14.8984375-33.9376831,27.0759277-48.3170776c2.7538452-3.2518311,4.5866089-7.3078003,6.6965942-11.0757446
		c10.8397217-19.3570557,26.0079956-33.2406006,47.757782-39.7421265
		c7.2156982-2.1569824,13.6952515-6.6958008,20.6472778-9.8459473c3.5376892-1.6030273,7.4349976-3.7597046,11.0705261-3.5864258
		c28.0977478,1.3394775,54.7232971-7.1206665,81.8680115-11.9319458c9.3041992-1.6491089,18.2534485-2.4630127,27.7063293-1.1641235
		c9.0728455,1.2467041,18.3323364,2.94104,27.6186829-0.4445801c3.1516113-1.1490479,7.8359375-1.1094971,10.6880493,0.4523315
		c12.6002808,6.8999023,26.3179932,6.5932007,39.8102112,6.6761475c15.2826233,0.0939941,30.5678558-1.434021,45.8622894-1.7412109
		c16.6601562-0.3345947,33.3375092,0.1882324,49.997757-0.144104c21.9580078-0.4379883,43.9072113-1.3269653,65.8590927-2.0560303
		c17.9547119-0.5963745,35.9044266-1.4945679,53.8633575-1.7348633c6.5985031-0.0882568,13.313652,0.876709,19.7820168,2.2634888
		c2.8441658,0.6098022,6.6289616,2.961853,7.5117855,5.4135132c2.4489307,6.8000488,3.6097927,14.0651245,5.2578144,21.1516113
		c1.7165108,7.3809204,3.1895924,14.8270874,5.1775494,22.133667c1.6392326,6.0245361,3.8748283,11.8869019,7.3891554,17.829895
		c1.7260933-7.4572144,3.601552-14.8837891,5.1387262-22.3796997c1.7372031-8.4710693,3.2716913-16.9873657,4.7128496-25.5146484
		c2.3190987-13.722168,5.9203458-16.9696655,19.7035789-17.0222168c16.9060478-0.0645142,33.8453026-0.65625,50.7086258,0.1964722
		c13.9180679,0.7037354,27.7274246,3.3624878,41.6207123,4.8115845c11.9028931,1.2415161,23.84375,2.4243774,35.793335,2.7828979
		c5.8452759,0.175354,11.7525024-1.5587158,17.6235809-2.4801025c1.9678192-0.3087769,3.8965607-1.0214233,5.8669434-1.1334229
		c13.9482727-0.7924805,27.9089508-1.3734741,41.8535767-2.2214355c17.9187622-1.0895996,35.8125153-2.6700439,53.7421875-3.4805298
		c19.9485474-0.9017334,39.8610535-0.4815674,59.5078735,3.9647217c4.4987183,1.0181274,9.219574,1.4613647,13.8399353,1.4733887
		c42.9457397,0.1114502,85.8943176,0.3234863,128.8366699-0.0723877
		c13.7744446-0.1269531,23.6719971,4.1323242,32.3988953,15.5519409c4.903595,6.4165039,9.8287048,12.5223999,13.3836975,19.782959
		c0.6217041,1.2698975,2.2958374,2.0248413,4.234436,3.6447144c1.803894-6.7791138,3.041748-12.7606812,5.0327759-18.4802246
		c1.5085449-4.333252,3.9570923-8.3427124,6.0252686-12.4772339c2.4281616-4.8544312,6.050415-6.4110107,11.536499-5.1896362
		c2.489563,0.5542603,5.9654541-0.1268921,8.0784912-1.5787964c17.2492676-11.8527832,34.3215942-11.8501587,52.5928345-1.75354
		c7.6689453,4.237915,16.8960571,7.2081299,25.5900879,7.7075195c16.2019043,0.9306641,32.7840576,1.2842407,48.7463379-1.1486206
		c21.119751-3.2188721,42.0227051-7.1729126,63.4902954-5.8933716c10.6243896,0.6331787,21.2977905,1.0423584,31.8340454,2.4271851
		c19.6480713,2.5825195,39.2012939,2.3189087,58.7113647-0.732605c5.883728-0.9202271,11.5618286-3.0834961,17.4096069-4.3205566
		c9.6123657-2.0333862,18.3223267-2.1248169,27.4398804,4.237854c7.8443604,5.473999,17.0228882,7.8336182,27.9215698,2.2477417
		c16.5545654-8.4847412,35.416626-7.8457642,53.7423096-7.7640381c5.5751953,0.0248413,9.5846558,2.8740845,11.8287354,7.7990112
		c4.4348145,9.7330933,12.8670654,15.00354,21.6727905,19.848877c1.9807739,1.0898438,4.3677979,1.8886108,6.6067505,1.9937134
		c22.6682739,1.0645752,43.8822632,7.3088989,64.0408325,17.5036011c1.7662354,0.8931885,3.7794189,2.2650146,5.5249023,2.0668945
		c8.0168457-0.909729,12.0938721,4.6013184,16.378418,9.6144409c4.7369385,5.5423584,7.5690918,12.2591553,6.1657715,19.4313354
		c-3.1051025,15.868042,2.026123,31.0123291,3.8040771,46.3259888c1.8947754,16.3187256,3.300415,32.3695068,1.2122803,48.6923828
		c-0.4122314,3.2234497,0.3602295,6.5864868,0.4500732,9.888855c0.1444092,5.3064575,0.8078613,10.7009277,0.1080322,15.9046021
		c-1.0916748,8.1187744-5.3704834,12.8342285-14.0217285,15.8833618
		c-17.7709961,6.2633667-36.0958252,5.0142212-54.1826172,6.7514038
		c-12.5604248,1.2064209-25.2863159,0.7648315-37.8232422,2.1216431
		c-11.6582031,1.2616577-22.6650391,5.2929688-32.4425049,12.0571289
		c-11.3012085,7.8183594-24.4863281,9.5325317-37.5158691,11.8736572
		c-8.1377563,1.4620972-16.1677246,3.5982056-24.3413696,4.7658691
		c-10.1807251,1.4545288-20.4584351,2.2332153-30.6967163,3.2822876c-3.7360229,0.3828125-7.8153076-0.8479614-13.0020142,3.21875
		c7.2983398,1.1075439,12.7782593,1.7682495,18.1882324,2.7966309c10.4384766,1.9842529,20.8024902,4.3731689,31.2631836,6.2235107
		c9.4815063,1.6771851,19.1473389,2.3942871,28.5630493,4.3477783c31.9071045,6.619812,63.7512817,13.5462036,95.5948486,20.468811
		c13.3365479,2.899292,26.5856934,6.1994629,39.9233398,9.0930786c7.7042236,1.6713867,12.8421631,5.9315186,16.821167,12.7970886
		c9.2927246,16.0343628,11.6870117,33.8110352,14.256958,51.6026611c0.4267578,2.954895-0.2580566,6.2391968,0.7698975,8.9102173
		c5.6077881,14.5728455,2.6573486,29.684967,3.0921631,44.5556335c0.1014404,3.4724121-1.7268066,6.9934692-2.6209717,10.5039673
		c-3.505127,13.7646484-9.8360596,26.7865601-10.8483887,41.2052002c-0.1400146,1.9930115-0.3562012,3.9950256-0.2954102,5.9854736
		c0.3845215,12.6075134-3.1384277,24.2799377-7.9394531,35.7786255
		c-8.3186035,19.9231567-24.9055176,27.0716858-44.6125488,30.5255127
		c-19.6322632,3.4406128-39.0957642,7.8473511-58.6185913,11.9005737c-0.8309937,0.1725464-1.5152588,1.0508423-3.8787842,2.7766113
		c5.4707031,1.7203369,9.6366577,3.4827576,13.9810181,4.3112488c12.663269,2.4147644,23.7399902,7.7561951,34.1877441,15.3705139
		c7.1791992,5.2323303,15.7283936,8.5778656,23.633667,12.82547c10.2528076,5.5089722,20.5090332,11.0136261,30.6740723,16.6809998
		c1.6726074,0.9325256,3.4222412,2.4333801,4.2224121,4.1079407c5.1375732,10.7507477,10.6363525,21.4100342,11.3875732,33.6651154
		c0.1422119,2.3197021,0.3363037,4.6864624,0.9267578,6.9204865c4.6687012,17.6610565,3.2423096,35.5827789,1.6369629,53.3567123
		c-0.7366943,8.1565933-3.8592529,16.1227417-6.125,24.111412c-5.0836182,17.9229355-10.7419434,35.6964455-15.2979736,53.7497826
		c-2.3964844,9.4961662-0.7475586,18.8685284,4.1162109,27.9087124
		c5.9755859,11.1069098,10.8292236,22.8189926,16.0905762,34.3049431c0.6809082,1.4869976,1.1912842,3.1683998,1.2866211,4.7888432
		c0.8200684,13.9402618,1.848999,27.8800964,2.1575928,41.8346329c0.2178955,9.8481827-3.258667,13.5925827-12.730835,16.3395996
		c-25.8649902,7.5012589-52.616333,11.832283-78.2746582,19.512146
		c-24.5463257,7.3471222-49.8994751,7.1206894-74.3897705,13.0242615
		c-7.440918,1.7937317-15.0819092,2.7807541-22.4819336,4.7099457c-3.0283203,0.7896347-6.2600098,2.5461426-8.3557739,4.8226471
		c-5.3787231,5.8426208-3.6537476,10.7866364,4.0775757,13.1208038c1.2744141,0.3847656,2.5822754,0.6643524,3.8828125,0.9562683
		c11.666687,2.6182556,23.3601685,5.1225433,34.9978638,7.8630829
		c24.2606201,5.7128296,48.5067749,11.4885101,72.7272339,17.3686676c8.371521,2.0323639,16.6173096,4.5815582,24.9869385,6.6228485
		c2.8708496,0.7001038,5.9488525,0.8376465,8.9238281,0.7812653c34.0230713-0.6444702,48.5865479,30.9459229,44.4504395,54.7662201
		c-0.8779297,5.0556641-1.6439209,9.7949066,0.8654785,14.5583038c7.5672607,14.3640137,5.9210205,29.7723083,4.7138672,45.0221863
		c-1.5212402,19.216156-3.2369385,38.425354-5.3846436,57.5796204c-1.0286865,9.1749573-2.3984375,18.4789429-5.1186523,27.2586365
		c-4.2877197,13.8402405-3.208374,27.7301636-1.8392334,41.5640869c1.6708984,16.8859863,4.9558105,33.6111755,1.6051025,50.6777954
		c-0.5306396,2.7020874,0.4459229,5.90625,1.385376,8.6530151c3.2165527,9.4045105,7.7607422,18.4904175,9.7952881,28.120697
		c1.5980225,7.5648193,0.3027344,15.7562256,0.1616211,23.6668701c-0.0944824,5.2977905-0.5928955,10.5909424-0.6083984,15.8870239
		c-0.0585938,19.9151611-5.2564697,38.7497559-11.7515869,57.3398438
		c-5.5889893,15.9967041-11.4622803,31.9082642-16.5008545,48.0783081
		c-3.7355957,11.987793-5.7808838,24.5081787-9.6405029,36.4487305
		c-2.4207764,7.4890747-6.4753418,14.5324707-10.4089355,21.4268188c-3.5428467,6.210022-9.1934814,9.5994263-16.6691895,8.8012085
		c-6.6073608-0.7053833-13.3308105-1.0301514-19.7542114-2.5637207c-7.203186-1.7198486-12.479187-0.2479858-16.0180054,6.3308105
		c-2.0951538,3.8952026-5.4035645,6.4152832-9.6455688,5.9589844c-14.2120972-1.5288696-26.4108887,6.0247192-39.7565918,8.2546997
		c-16.3901367,2.7388306-32.8029785,5.3435669-49.185791,8.1253052c-4.5643311,0.7749634-9.7872925,0.8291626-13.4550781,3.1731567
		c-15.0460205,9.6156616-31.4991455,11.3739624-48.7144165,10.8571167
		c-8.8850098-0.2668457-9.1254883,0.2672729-13.8165894,7.0718384c1.937561,3.9503784,5.6989746,2.3284302,8.760498,2.8080444
		c6.180542,0.9678345,12.3467407,2.043335,18.546936,2.8619385c4.2695312,0.5636597,8.5806885,0.9961548,12.8826294,1.0995483
		c31.2854004,0.7509766,62.5769043,1.2796631,93.8565674,2.208374c5.2415161,0.1555786,10.7229614,1.1721191,15.5930786,3.0723267
		c11.1246948,4.3413086,21.7689819,9.9285278,32.9383545,14.133606c7.7230835,2.9076538,16.0202637,4.2685547,24.0177002,6.4770508
		c5.9711914,1.6485596,11.873291,3.546814,18.8607178,5.6516724c-2.1192627,2.9309082-3.2156982,4.8707886-4.7113037,6.4279785
		c-3.2043457,3.3365479-6.4219971,6.713623-10.006958,9.6137085c-2.4971924,2.0198975-5.4545898,3.7232666-8.4801636,4.7966919
		c-18.6594849,6.6199341-38.2664795,8.6975708-57.6800537,11.6879272
		c-10.7324219,1.6530762-21.4561768,3.3623047-34.2144775,5.3649902c2.9639893,2.2647705,4.1843262,3.9255371,5.6787109,4.2263794
		c14.6761475,2.9542236,29.3966064,5.6879272,44.1074829,8.4681396c2.2886353,0.4324951,4.6777954,0.5159302,6.8764648,1.2137451
		c24.5874634,7.8036499,50.4516602,6.5125122,75.5657959,10.5953369c9.1564941,1.4885864,18.5570068,1.4369507,27.8328857,2.2404175
		c13.5717773,1.1758423,21.3232422,9.2194214,21.5773926,22.7355347
		c0.5174561,27.5079346-3.5974121,54.3701172-11.7409668,80.637085c-0.8831787,2.8479004-1.5394287,5.7697754-2.2182617,8.6766968
		c-2.1887207,9.3729248-4.3237305,18.5737305-9.399292,27.1671143c-2.59021,4.3855591-1.8804932,10.8324585-2.2581787,16.3751221
		c-0.3131104,4.597229,0.1450195,9.2421265-0.0509033,13.8527222c-0.6326904,14.9049072-0.1945801,29.644165,2.4375,44.4614258
		c1.7272949,9.7243652,1.3620605,19.9008789,1.1947021,29.8625488c-0.2734375,16.2724609-0.2553711,32.6395264-2.1429443,48.7581787
		c-0.9711914,8.2956543-5.4614258,16.293335-9.0742188,24.0960693c-1.0583496,2.2860107-4.3492432,4.1293945-6.9974365,4.9533691
		c-4.0762939,1.2686768-8.5075684,2.1744385-12.7419434,2.0135498c-13.1784668-0.5002441-25.8730469,1.1101074-38.1677856,6.0961914
		c-3.3319702,1.3511963-7.1130371,1.6464844-10.7147217,2.2716064c-6.3079224,1.0946045-12.0740356,2.9102783-17.1567993,7.3413086
		c-3.6659546,3.196167-8.5615234,4.9718018-12.8742676,7.4412842c-2.5592651,1.465332-5.5062866,2.6088867-7.4857178,4.661499
		c-5.1723022,5.3636475-4.4764404,8.3588867,1.4035645,12.9237061c3.5890503,2.7861328,7.5983887,5.8052979,9.5742798,9.6638184
		c1.7767334,3.4693604,2.5835571,8.9263916,1.0724487,12.2647705c-2.8109741,6.2108154-6.7920532,12.427002-11.7980347,16.9799805
		c-6.8425293,6.2227783-14.5224609,12.1981201-22.8980103,15.8864746
		c-9.5856323,4.2214355-20.2092896,7.5214844-30.5884399,8.2401123
		c-31.5148315,2.1817627-63.1312866,2.8807373-94.7041626,4.2478027
		c-12.6218872,0.5461426-25.310791,0.6784668-37.8301392,2.1676025
		c-15.7849731,1.8780518-30.3378296,8.0682373-42.9686279,17.5683594
		c-8.3991089,6.3172607-17.8851318,7.3997803-27.3222046,7.9361572
		c-10.8885498,0.6185303-21.9107056-0.4870605-32.8334961-1.3613281
		c-5.2789917-0.4224854-12.0163574-9.1185303-13.0575562-15.0958252c-0.7228394-4.1486816-1.986145-8.2019043-2.9790039-12.3050537
		c-0.5453491-2.2536621-1.5914307-4.5574951-1.4525146-6.7785645c0.9262085-14.7938232-6.3677368-27.7358398-9.1928711-41.6710205
		c-0.4341431-2.1412354-1.8944702-4.074585-2.9830322-6.3156738c-5.3846436,0.8096924-6.4888306,4.7733154-7.4553223,8.5371094
		c-0.9908447,3.8580322-1.1956787,7.921875-2.2365112,11.7625732c-5.8101807,21.4381104-18.5615845,36.230957-40.380188,42.8372803
		c-13.6794434,4.1416016-26.9943848,9.4827881-40.6599121,13.6763916
		c-5.9641113,1.8303223-12.3810425,2.8586426-18.6196899,2.994751c-17.9632568,0.3919678-35.9571838-0.3321533-53.907135,0.2954102
		c-14.7844238,0.5163574-23.313324-7.8449707-30.5458374-18.8496094c-1.7220764-2.6201172-3.1485901-5.4346924-5.0090942-8.6796875
		c-6.459259,6.1381836-11.641449,11.6776123-17.4905701,16.3896484c-3.5002747,2.8201904-7.8652649,5.6148682-12.1517334,6.2183838
		c-13.4732666,1.8969727-27.0123596,4.2819824-40.7543335,2.05896c-2.5680542-0.4156494-5.3574829-0.3968506-7.9020081,0.121582
		c-21.1570129,4.3095703-42.3658447,2.9420166-63.6438904,1.1973877c-9.276825-0.7607422-18.6514282-0.2445068-27.9652405-0.6689453
		c-6.6280518-0.3022461-13.2853699-0.8549805-19.8317566-1.9055176c-30.7804718-4.9404297-61.5748138-5.6104736-92.4912872-1.307251
		c-9.8709869,1.3741455-19.8205872,2.369751-29.7686005,2.9627686c-16.9355392,1.0092773-33.9225235,1.2227783-50.8413315,2.4249268
		c-11.8470383,0.8417969-20.7202606-5.0272217-26.112793-13.708252
		c-7.3673058-11.8605957-18.4548836-10.3952637-28.9934044-11.2143555c-2.851368-0.2218018-6.2029629,3.2679443-8.9892616,5.4771729
		c-6.5679207,5.2080078-12.8700123,10.8214111-22.2288113,9.2200928c-1.638135-0.2805176-3.6927466-0.0036621-4.8529367-0.8959961
		c-7.8973145-6.0754395-18.1767807-6.2110596-26.5458145-10.7764893
		c-10.6220245-5.7941895-20.5447731-3.296875-30.5301514,1.0859375c-8.5276108,3.743042-16.6360016,8.8919678-25.5061188,11.2764893
		c-8.8444138,2.3775635-18.3972549,2.6804199-27.6552811,2.8150635
		c-10.6167755,0.1547852-21.2588196-0.7514648-31.8751678-1.4274902
		c-10.2734833-0.6544189-20.5191345-2.0843506-30.7938385-2.2767334c-8.9098206-0.1668701-18.0946655-0.2110596-26.711792,1.7001953
		c-16.0866089,3.5673828-32.1833344,5.2519531-48.5879974,4.6082764c-1.6649933-0.0654297-3.4984131,0.3631592-4.972168-0.1885986
		c-14.3113098-5.3588867-28.9728394-1.3531494-43.4579163-1.8537598
		c-13.9593506-0.4822998-27.9017029-1.4453125-41.8597717-1.9837646c-5.1271973-0.197998-8.8203125-2.682373-12.0334167-6.2376709
		c-3.5716858-3.9520264-7.8885498-5.8443604-13.2689514-5.7947998c-2.6063843,0.0241699-5.4169617-0.3035889-7.7995605-1.2857666
		c-17.5068665-7.21521-34.8579712-14.8111572-52.4023743-21.9318848
		c-11.8326416-4.8023682-22.5032043-11.3287354-32.6773987-20.7144775
		c-2.3130798,2.3151855-4.4529114,4.1945801-6.2792053,6.3409424c-3.6140747,4.2478027-7.9111633,7.1265869-13.6080017,7.4775391
		c-16.7796631,1.0339355-33.1824036-0.3248291-49.1247864-6.3614502
		c-11.5155029-4.3599854-23.4371338-7.7229004-33.4021606-15.3544922
		c-8.5772095-6.5686035-15.6922607-14.1374512-18.8366089-25.0037842c-1.2574463-4.3455811-4.9464111-7.958374-6.4017944-12.2833252
		c-2.4208984-7.1942139-4.178772-14.6407471-5.7733765-22.0761719c-2.7797241-12.9610596-4.8824463-26.0744629-7.9176636-38.9716797
		c-2.3277588-9.8908691-0.3630371-19.2021484,2.2438354-28.519043c0.687561-2.4575195,2.2080078-5.0150146,4.0681152-6.755127
		c9.3544922-8.7523193,19.8201904-15.7875977,32.7012939-18.1287842
		c15.7203369-2.8572998,31.5374756-5.1873779,47.2434998-8.1169434c14.4046021-2.6866455,28.7284546-5.8139648,43.0594482-8.8800049
		c2.4986572-0.5344238,4.8563232-1.7276611,9.1338806-3.296875c-3.1936646-1.8464355-4.8274536-3.4797363-6.6537476-3.7346191
		c-11.2002258-1.5626221-22.4353638-2.8905029-33.6754456-4.1485596
		c-13.8855286-1.5543213-27.8883972-2.361084-41.6436462-4.6652832c-8.092041-1.3555908-16.0025635-4.5167236-23.6239624-7.7412109
		c-6.7979126-2.8762207-10.5291748-8.472168-11.8626099-16.1175537c-2.0454102-11.727417-4.4641113-23.444397-7.6677246-34.9022827
		c-4.456604-15.9386597-9.8999023-31.5994263-14.6404419-47.4628906c-0.9200439-3.0788574-0.7255249-6.5406494-0.7388306-9.8270264
		c-0.0161743-3.977356,0.5988159-7.9710693,0.4035034-11.9312744c-0.5427856-11.0021973,4.8762207-18.4332886,15.2020264-22.3548584
		c4.770874-1.8121338,9.6566772-4.7828369,13.0279541-8.5395508c9.762085-10.8783569,18.9055176-22.3235474,28.0264282-33.7578735
		c3.069397-3.8479004,6.0768433-6.1873169,11.4240112-6.6838379c4.1630249-0.3864746,8.0556641-3.6818237,12.9290771-6.1139526
		c-6.6366577-8.31073-11.8225708-15.9332886-18.2313843-22.3318481c-2.9932251-2.9880371-8.2227783-4.2211914-12.6690674-5.1617432
		c-7.2531738-1.5344849-10.8548584-5.9483643-12.2767944-12.7425537c-0.4082031-1.9503174-0.8430786-3.9303589-0.9171143-5.9099121
		c-0.7584839-20.2766113-1.9591675-40.5557251-1.9633179-60.8344116
		c-0.0026245-12.6185303-1.5664062-24.5137939-7.644104-35.6645508
		c-5.8479614-10.7290649-6.3720703-21.4252319-0.1682129-32.3467407c1.5913086-2.8013306,1.920105-6.3309326,2.7584229-9.5443726
		c0.6716919-2.5744629,0.5203247-5.7022095,1.970459-7.6776123c7.0253906-9.5689087,5.2905884-20.5029907,4.5167847-30.8931885
		c-0.5270386-7.076355-4.4343872-13.835022-5.8213501-20.9328003c-1.262085-6.4587402-1.4921265-13.1794434-1.5670776-19.791687
		c-0.0679932-6.0004883,3.4352417-9.8904419,9.0910645-11.7609253c1.8956909-0.62677,3.8257446-1.3108521,5.7904053-1.5430908
		c17.6838379-2.09021,34.6987305-7.8549194,53.1711426-6.0776367c13.0058899,1.2514038,26.5213013-1.5059814,39.6785583-3.3868408
		c24.3527832-3.4811401,48.6286011-7.5198975,72.8937988-11.5809937c6.1925964-1.036438,12.2748413-2.8573608,18.3203125-4.6179199
		c9.9006653-2.8831177,19.7592468-5.9215088,29.5641479-9.1135864c1.9827881-0.6454468,3.6487732-2.2634277,6.4184875-4.0510864
		c-2.6784668-1.5650024-4.1763916-3.0421143-5.8833313-3.3459473c-20.6422729-3.6749878-41.3204956-7.147644-61.9787903-10.7335205
		c-16.3861084-2.8442383-32.7294922-5.9459229-49.1448975-8.6061401
		c-12.4371643-2.0154419-24.9642334-3.4715576-37.4395752-5.2582397c-10.545929-1.510437-21.072113-3.1585388-31.6133423-4.7027588
		c-3.2896118-0.4818115-6.635498-1.3555603-9.894043-1.1361694c-12.8399048,0.864502-20.9882202-6.0718384-26.1325073-16.5029297
		c-3.7890625-7.683197-6.5898438-16.0552979-8.4901123-24.4248352c-3.7686768-16.5982666-5.0737305-33.5196533-4.6368408-50.5888367
		c0.1749268-6.8337402,2.8256836-11.2140503,9.1480103-13.9343567c7.6419067-3.2881165,14.6592407-7.3477173,20.4295654-13.8735657
		c3.2971802-3.7287903,8.9523926-5.3739319,13.093689-7.7029724c4.2965698,2.0085754,7.6619873,4.1618958,11.3313599,5.0273438
		c1.5911255,0.3751526,3.8084717-1.902771,6.1123657-3.1815796c-2.2463379-4.4321899-6.291748-4.3189392-9.4432983-5.6309204
		c-10.0893555-4.2003479-20.4937134-7.7581482-30.2453003-12.6272278
		c-12.3856812-6.1841431-20.6461792-16.2360535-24.5286865-29.8224792
		c-1.5440063-5.4028625-4.1967163-10.4823303-6.2248535-15.7550964c-3.6099854-9.3852539-6.1906128-18.6859131-4.1799316-29.1687317
		c1.2849731-6.6991272-0.1566162-13.901886-0.1813965-20.8794861c-0.0114746-3.2387085-0.0827637-6.6246948,0.7736206-9.6927795
		c3.4729004-12.4413605,7.4075317-24.753006,10.9647827-37.1717834c6.6361084-23.1666718,5.8604736-46.6494141,3.4448242-70.3430328
		c-1.8743286-18.3842316-1.7853394-36.7155685,10.8419189-52.326004c1.3895264-1.7178879,2.4310913-4.1832428,2.5678101-6.3685226
		c0.6586304-10.5246201,2.7280273-20.9779739,0.1397705-31.6365852
		c-2.4990845-10.2911034-3.3845825-20.9917603-6.1489258-31.1957302
		c-3.1812744-11.742836-5.2614136-23.8766708-13.2254028-34.0838165c-6.3630981-8.1552448-4.9678955-19.4500275,1.861145-27.7774639
		c16.7869263-20.4703026,38.6831055-30.4885368,64.9211121-32.3893585
		c18.2173157-1.3196869,36.6541748-1.2746582,54.4689941-6.1016998c11.8157349-3.2015915,23.5067139-6.8629532,35.25354-10.3184967
		C-420.0583496-81.9771042-420.086792-82.8569183-420.1152039-83.7366714z"/>
	<path class="st2" d="M1174.1744385-253.7368164c-33.003418-3.0666504-65.0643311-6.0457764-97.1252441-9.0249023
		c-1.0916748-1.0280151-2.2592773-1.6755371-3.4735107-2.090332c1.1779785-0.2783813,2.3261719-0.7606201,3.4228516-1.5985107
		c16.2366943-1.4345093,32.4650879-2.9727783,48.7126465-4.2716675c13.5854492-1.0861206,27.1988525-1.8233032,40.7866211-2.8840332
		c2.541748-0.1983643,5.0209961-1.1956787,7.6804199-1.8621216c0-91.5270996,0-182.5471802,0-274.767395
		c-33.2712402-2.7932129-77.0405273-6.4298096-110.6262207-9.2460938
		c5.7697754-1.3189697,17.6962891-6.2821045,22.2415771-6.6138916c22.8198242-1.6658325,45.6553955-3.1185303,68.4731445-4.8117676
		c6.5371094-0.4851685,13.0335693-1.5195312,20.15979-2.3754883c0.1931152-4.3935547,0.4755859-7.9655762,0.4858398-11.5384521
		c0.0456543-15.9459839-0.0212402-31.892334,0.0170898-47.8384399c0.081543-33.8811035,0.2032471-67.762085,0.3084717-101.6431885
		c-0.0889893-41.9012451-0.1585693-83.8025513-0.2894287-125.7036743
		c-0.0187988-5.9786377-0.3330078-11.9562988-0.510498-17.9344482
		c-65.9698486-0.8812866-131.9364014-0.8606567-198.6263428-0.6843872
		c-0.4690552,6.8435059-0.8496704,12.395813-1.2303467,17.9481201c0.0792236,1.1679077,0.1585693,2.3378296,0.2402954,3.5422974
		c-2.2217407-6.7815552-6.142395-16.4204102-7.0810547-21.562439c-6.43396,0-11.9921875,0.0014648-17.5504761-0.0002441
		c-18.5297241-0.0057983-37.0600586,0.0585327-55.5889282-0.0700073c-4.5426025-0.0315552-7.9275513,0.769165-7.8639526,6.2406616
		v-0.000061c-1.2540894,1.3588867-2.5082397,2.7177124-3.7622681,4.0767212
		c-0.7805786-3.1574097-1.5611572-6.3148804-2.4235229-9.8027344c-109.9077759,0-219.0987549,0-329.2155762,0
		c-0.2390137,3.4415894-0.454834,6.5496216-0.6708374,9.6575928c-0.4459839,9.5706787-2.180603,19.1469727-2.7909546,29.152771
		c-0.3883057-5.2483521-2.9246216-15.1831665-2.7102051-17.0686646c2.1245728-7.5934448-1.3370361-14.5010376-2.6627197-21.6708984
		c-8.7828979-0.1708984-17.5653687-0.4040527-26.3490601-0.4798584c-3.2109375-0.02771-6.7788696-0.3042603-7.5118408,4.2338867
		c-1.550293,4.6864014-0.3468018,9.5231934-0.7797241,14.2703247c1.2485962,8.6815796,0.7627563,14.6690063-1.0095215,19.6402588
		c-1.0345459-8.1261597-4.2476807-22.5097046-3.7365723-26.1980591c-0.3748169-3.9232178-0.7484741-7.8477783-1.1223145-11.7723389
		c-28.3310547,0.059021-56.6621094,0.1646118-84.9931641,0.1691895
		c-136.9926758,0.0222778-273.9853516,0.0213623-410.9780273,0.0085449
		c-5.8736572-0.0005493-11.967041-0.7006226-14.8408203,7.0021973c0.2797852,0.0471191,0.5479736,0.0922852,0.824646,0.138916
		l-1.4215698,8.0311279l-1.0352173,11.6808472l-1.0213013,9.8936157l-4.3372803,11.7764893
		c-1.5068359-4.4124756,2.7561646-8.503418,1.4607544-12.9024658c-1.0814819-5.4989014-1.7697144-11.0406494-1.7546997-16.6523438
		c-0.0125732-5.1908569,0.3457031-10.4544678-2.8154907-15.0615234c-1.3154907-6.4727783-6.440979-5.6397095-11.02948-5.6702271
		c-32.6297607-0.2172852-65.2594604-0.5111084-97.8895874-0.5651245
		c-59.2750244-0.0982056-118.550293-0.0519409-177.8254395-0.0565186
		c-70.2735596-0.0054932-140.5470581-0.0124512-210.8205566,0.0301514c-3.8735962,0.0023193-7.7468872,0.4523926-12.12323,0.7254028
		c-0.9971313,6.4161377-1.8531494,11.9243164-2.7091675,17.4324951c-0.1940918,0.2405396-0.362915,0.4814453-0.512085,0.7227173
		c-1.3843384-4.682373-3.1119385-9.2443848-3.5899048-12.5562134c-0.6780396-6.5115967-5.3875732-6.3838501-10.2276001-6.3764038
		c-34.2644653,0.0526733-68.5290527,0.0188599-102.7935181,0.0828247c-2.5562134,0.0047607-5.1114502,0.555542-8.6035156,0.9613037
		c-0.5401611,146.3989868-2.7688599,292.2657471-1.1607056,438.6911621
		c44.4668579,5.461792,88.145752,14.1652222,131.5248413,19.7661743
		c-15.7479248,3.204895-31.5524902,7.6922607-47.2210083,9.4855347c-6.2516479,0.7155762-12.7432861,1.1521606-18.5942383,3.2183838
		c-19.4541016,6.8701172-38.6740723,14.4042969-57.9629517,21.7385864
		c-2.4476318,0.9306641-4.7717896,2.1859131-8.0630493,3.7129517c0,5.5765381-0.0004883,11.1908569,0.000061,16.8051758
		c0.0081787,78.5753174,0.031189,157.1507568-0.0078735,235.7260742
		c-0.0026245,5.3085938-0.6313477,10.6151733-0.6898193,15.9257812c-0.1009521,9.1584473-0.8444824,18.3816528,0.730957,27.5159912
		c6.80896,0.6141968,12.4257202,1.2094116,18.0562744,1.6135254c24.2321167,1.7385864,48.4683228,3.4210815,72.7030029,5.1240845
		c2.9490967,0.2438354,6.5723877,3.2244263,8.1715088-2.0115967c-5.6085205-0.7505493-11.2345581-1.3900757-16.8223877-2.2717285
		c-19.7391968-3.1146851-39.4833374-6.2052612-59.1879883-9.5280762
		c-8.5704346-1.4451904-11.4058838-4.3998413-12.9101562-12.7384644c-0.4642334-2.5736084-0.5057373-5.3309937-0.1569214-7.9258423
		c2.0825806-15.493042,4.5430298-30.9381104,6.4160156-46.454834c0.6278076-5.2008667,0.0106201-10.569397-0.2210693-15.8532104
		c-0.8883667-20.2619019-1.9029541-40.5184326-2.7139893-60.7831421c-0.0905762-2.262207,0.9835815-4.5464478,1.2324829-6.8511963
		c0.8881226-8.2228394,2.701355-16.5161743,2.2550049-24.6785278c-1.0527954-19.2511597-3.7701416-38.4145508-4.7127075-57.6673584
		c-0.630127-12.87146-0.0258789-25.9032593,1.2962646-38.7324219c0.7745972-7.5158691,5.3007812-13.6115723,13.6315918-15.4651489
		c12.8569336-2.8605957,24.2694702-9.0458374,35.6690063-15.3449097c4.0332031-2.2286377,8.394165-4.499939,12.852356-5.2157593
		c20.3364868-3.2651978,40.78479-5.8294067,61.1408691-8.9815674c7.3339844-1.1356812,20.5695801-5.7260742,28.0175781-11.3804321
		c-10.0637817-2.522583-41.0870972-8.5934448-50.1872559-10.3482666
		c-15.3305664-2.9562378-30.7523804-5.461853-46.1740723-7.9169312c-14.1152954-2.2471313-28.2667847-4.2821045-42.4291992-6.213501
		c-11.7944336-1.6083984-15.7904663-6.4139404-14.3110962-18.1433716c0.4987183-3.9537964,1.3835449-7.8712158,2.2921143-11.7585449
		c2.3304443-9.9708252,2.0889282-19.697998-1.4142456-29.4664307c-1.6593628-4.6270752-2.7147827-9.6538696-3.0009766-14.5603638
		c-2.0402832-34.9848022,1.9573975-69.7501831,4.1838379-104.5783691
		c1.0388794-16.2520142,2.8165283-32.486145,3.1191406-48.7496338c0.5443115-29.2493896,0.6523438-58.5209351-3.0764771-87.6561279
		c-0.6256714-4.8886108,0.0755615-9.9613037,0.3098755-14.9420776c0.3435669-7.3027344,1.3230591-14.6122437,1.1350098-21.895752
		c-0.4104004-15.9019775-1.3383789-31.7918091-2.1661987-47.6807861c-0.1899414-3.6469727-1.2409668-7.2770386-1.1842651-10.9038086
		c0.1708374-10.9282227,4.814209-15.2719727,12.8105469-15.8336792c13.2523804-0.9309082,26.4538574-3.1538696,39.7033691-3.399292
		c13.5995483-0.2518311,27.2310181,1.2131958,40.8481445,1.9335327c0.9974365,0.0527344,1.9909668,0.175415,2.9879761,0.2390747
		c6.0325317,0.385437,9.8811035,3.3019409,11.3632202,9.3374023c1.0263672,4.1795044,6.5940552,14.3847046,7.8182373,18.515686
		c0.6340332-1.1791382,0.9784546-2.5166016,1.1103516-3.9591675c2.1252441-4.9093018,3.7434692-7.9577026,4.6707153-11.1790161
		c1.982605-6.8881836,6.3382568-9.362915,13.3661499-9.2352295c6.9384766,0.1260376,13.8964844-0.8196411,20.8459473-1.2956543
		c4.6116943-0.315918,9.2369995-1.0360107,13.8326416-0.8798828c20.6084595,0.7001343,41.2026367,2.0888672,61.8134155,2.3599243
		c14.6119385,0.1921997,29.2376709-1.1863403,43.8650513-1.5445557c35.2766724-0.8638916,70.4527588,0.3390503,105.6732788,3.132019
		c28.8538208,2.2880249,57.9629517,0.9363403,86.696106-2.5373535c22.5888062-2.730835,45.1063843-3.5968018,67.715271-2.7603149
		c23.916687,0.8848877,47.7963257,2.7330322,71.7053833,3.883606c11.5045776,0.5535889,12.6820679,1.3257446,14.6323242,12.9727173
		c2.2600098,13.4963989,4.5824585,26.9822998,6.9854736,41.1055298l3.119751-3.4136963l2.0426025-3l1.085083-7.5319214
		c0,0,2.2340698-7.7233887,2.2340698-7.914917c0-0.1914673,2.6170044-11.170166,2.6170044-11.4893188
		s4.4680786-12.7021484,4.4680786-12.7021484s1.4042358-5.9361572,2.0425415-7.3403931
		c0.1283569-0.2824097,0.1526489-0.604126,0.1355591-0.9329224c6.4217529-0.4796143,12.854248-1.2398071,19.2504883-1.0071411
		c20.2508545,0.7364502,40.4768066,2.1277466,60.7228394,3.0281982c24.3087769,1.0811157,48.4721069-1.3085938,72.6634521-3.2286987
		c7.2445068-0.5750122,14.7143555-0.62854,21.8733521,0.4526367c25.5048828,3.8518066,51.1444702,3.3623657,76.6913452,2.1229858
		c17.3811646-0.8432007,34.4827271,1.4850464,51.7167969,1.6887817c23.5684814,0.2786255,47.1499634,0.0628052,70.7164917-0.409668
		c8.6066895-0.1725464,17.187439-2.4587402,25.7782593-2.4475098c29.244812,0.038147,58.526001-1.9018555,87.7290039,1.7529907
		c10.6525879,1.3331299,10.7349854,0.7503662,13.4487305,10.9360352c0.3369141,1.2647095,4.2719116,13.1209717,6.0997314,18.8911133
		c0.4064331,1.5753174,0.1270142,2.5878296,0.8899536,2.9423218c0.0054321,0.022583,0.0140381,0.0542603,0.0180054,0.0725708
		c0.0024414-0.0178223,0.0029907-0.0411987,0.0053101-0.0595093c0.3745117,0.1619263,0.9898071,0.175293,2.0372925,0.0275879
		c1.3008423-8.5019531,3.6312256-15.9293823,5.7536011-24.2212524c1.9835815-7.7490845,5.5269775-9.2217407,13.3703613-8.5182495
		c5.6949463,0.5108032,8.9919434,3.9573364,11.2858276,8.6013794c1.5524292,3.1428833,6.1485596,16.8607178,8.2005615,22.2030029
		c0,0.0002441-0.000061,0.0004883-0.000061,0.0007324c0.0001221-0.000061,0.0001221-0.0001221,0.0002441-0.0001831
		c0.0397339,0.1034546,0.0803833,0.2098389,0.1181641,0.3068848c0.0151367-0.1333618,0.0255127-0.277771,0.0324097-0.4298706
		c1.039856-0.8256836,1.1984253-1.7265625,1.3439331-2.1791382c2.1386108-6.6520386,6.239563-12.6469116,8.3826904-19.2974854
		c3.5064697-10.8815918,6.5230713-13.5717163,17.4638062-10.522583c10.2025146,2.8433838,20.3331909,2.8607178,30.5606079,3.0635376
		c15.2481079,0.3024902,30.5137329,0.8806763,45.6842651-1.8874512c6.1665649-1.1251831,12.5298462-1.4491577,18.815918-1.5903931
		c18.9751587-0.4262695,37.9555054-0.6815796,56.9353027-0.8154907c14.9364014-0.1053467,29.9008789-0.4695435,44.805542,0.255127
		c18.2617798,0.8878174,36.4553833,3.1801147,54.7172852,4.0605469c7.1751099,0.3459473,14.5526733-1.0026855,21.6653442-2.4355469
		c10.9412231-2.2041016,20.4612427-0.2772827,28.6428223,7.5002441c1.9049683,1.81073,3.9542847,3.4695435,5.9397583,5.1957397
		c-0.0004883,0.0541382-0.0009155,0.1082153-0.0014038,0.1623535c0.0002441-0.0001221,0.0003662-0.0003662,0.0006104-0.0004883
		l-0.0004883,0.0008545c0.0002441-0.0003052,0.0004272-0.0006104,0.0006714-0.0009155
		c0.0352783-0.022644,0.0620117-0.0473633,0.0967407-0.0701294c1.1835938,1.3733521,2.3717651,2.7522583,4.1293945,4.7921143
		c1.9269409-2.855957,3.7210083-4.8069458,4.708374-7.1044312c3.7642212-8.7583618,10.4934082-11.9431152,19.7112427-11.9787598
		c9.552063-0.0369263,19.098938-0.9332275,28.6523438-1.3613892c3.2947388-0.147644,6.6127319-0.1884766,9.9011841,0.0200195
		c7.3920898,0.4685669,18.6533813,11.4173584,21.4869385,19.0718384c0.5722046,1.5461426,1.9840698,2.7816772,3.4577026,4.7644653
		c0.2543945-0.8210449,0.4515381-1.4573364,0.6168823-1.9909058c1.1309814-1.1896362,1.6796875-1.5762329,1.8629761-2.0822754
		c0.5632935-1.555542,1.0354004-3.1557617,1.3956299-4.7713013c3.1074219-13.9263306,4.8584595-15.1674805,18.9245605-13.0211792
		c3.9489136,0.6026001,7.8460693,1.5597534,11.802063,2.0958252c2.9499512,0.3998413,5.9594727,0.572937,8.9372559,0.5241699
		c43.8932495-0.7193604,87.7637329-4.102356,131.6897583-0.8899536
		c12.7084961,0.9293823,15.4697266,3.1032104,14.7502441,15.8135986c-1.4077148,24.8721313-1.5614014,49.8631592-6.548584,74.456665
		c-1.1003418,5.425354-1.5354004,11.3977051-0.4971924,16.7748413c5.3050537,27.4750366,3.0970459,55.0700684,1.8970947,82.6286011
		c-0.4790039,11.0018921-1.7475586,21.8736572,1.9299316,32.6191406c0.9472656,2.7680054,1.1054688,5.9036865,1.1262207,8.8739624
		c0.1005859,14.3163452,0.2475586,28.6384277-0.0488281,42.949646c-0.2329102,11.234375-4.8039551,16.3823853-16.1247559,15.418396
		c-17.8518066-1.5200195-34.96521,0.6090088-51.8405762,6.0928345c-0.6276855,0.2039795-1.3099365,0.2362061-1.9633789,0.3652954
		c-11.2347412,2.2192993-31.3208008,9.4668579-43.7231445,11.9192505c2.4716797,0.6381226,3.7180176,0.9599609,4.9645996,1.2817993
		c1.5732422,1.2366333,3.1340332,1.4448242,4.6887207,1.1376953c13.8215332,2.7846069,35.5541992,5.3701782,47.3623047,7.4616699
		c16.6965332,2.9572754,33.3430176,6.1976929,50.0047607,9.3486938c4.5300293,0.8567505,7.9403076,2.2321167,7.8121338,8.2254639
		c-0.5767822,26.9255981-0.7186279,53.8603516-1.1013184,80.7905273c-0.0612793,4.3096924-0.6547852,8.609314-0.8183594,12.9205933
		c-0.3894043,10.2664185-1.064209,20.5435791-0.8947754,30.8043823c0.2192383,13.2701416,1.2307129,26.5253906,1.7509766,39.7929688
		c0.7543945,19.2418213,1.3925781,38.4884033,2.0375977,57.734375c0.1444092,4.3070068,0.390625,8.6386108,0.1060791,12.9268188
		c-0.819458,12.3485718-5.0115967,16.300415-17.0552979,17.5567017c-9.5556641,0.9967651-19.0310059,2.7420044-28.5769043,3.8568726
		c-18.1508789,2.119812-36.3323975,3.975708-54.4882812,6.0541382c-5.1140137,0.5853882-10.9221191-0.2098389-13.864502,5.7403564
		c1.7180176,0.9905396,3.4516602,1.0198364,5.189209,0.786377c-0.5444336,0.6618042-0.8842773,1.6612549-0.8916016,3.2086182
		c12.1726074,1.4796143,24.3393555,3.0111084,36.5196533,4.4251099c14.0574951,1.631958,28.5909424,0.123291,41.6862793,7.7827759
		c3.4486084,2.0170898,8.3448486,1.666748,12.6048584,2.1577759c3.293457,0.3795166,6.6594238,0.1618042,9.9421387,0.5952148
		c4.1672363,0.5501099,6.6586914,3.1842651,6.6918945,7.3927002c0.0341797,4.303833-0.5911865,8.6082153-0.7376709,12.9188843
		c-0.3155518,9.2852173-0.8023682,18.5788574-0.6668701,27.8609619c0.1257324,8.5993042,1.5002441,17.1959229,1.371582,25.77948
		c-0.1845703,12.2800903-1.7946777,24.5482788-1.7709961,36.8195801c0.0266113,13.9172974,1.2979736,27.828064,1.8244629,41.7493286
		c0.8791504,23.2445068,1.7385254,46.4915161,2.3056641,69.744812c0.2011719,8.2512817-0.220459,16.5421143-0.8078613,24.7827148
		c-0.9432373,13.230957-2.3654785,26.427124-3.3850098,39.6533203c-0.739624,9.5933228-1.4406738,19.2055054-1.6419678,28.8200684
		c-0.2408447,11.5076294-2.619751,23.1143799,2.1473389,34.4897461c0.9066162,2.1634521-1.7141113,5.8041382-2.7072754,8.7632446
		c-10.1881104,1.1883545-20.3496094,2.8175659-30.5720215,3.4319458
		c-8.9226074,0.5361938-17.9382324-0.5341187-26.8688965-0.0646362
		c-13.6136475,0.7156372-27.1848145,2.2093506-40.7827148,3.2584839
		c-15.9290771,1.2288818-31.8718262,2.2819214-47.798584,3.5378418c-3.4070435,0.2686768-7.1634521,0.175354-10.3175049,4.3334961
		c4.5808716,0,8.8616943,0.000061,12.9986572,0c3.378479,0.8116455,6.2302856,3.4528198,9.5161133,3.9263306
		c19.7733154,2.8495483,45.8978271,8.0986938,65.7647705,9.1680908c19.296875,1.0386353,38.4694824,2.3869019,57.6124268,4.9401245
		c10.9979248,1.46698,12.8742676,3.5328979,9.9545898,14.0628052c-1.513916,5.4602661-3.4705811,10.7259521-1.4770508,16.5744629
		c6.8656006,20.1438599,4.4667969,40.8864136,3.2160645,61.4390869c-0.4528809,7.4436646-0.6647949,14.4959717,1.8166504,21.6196289
		c4.1989746,12.0544434,4.1330566,24.5101929,0.2175293,36.3911743c-3.2697754,9.9209595-2.5361328,19.5001221-1.9631348,29.5239868
		c1.2722168,22.25177,3.1304932,44.6399536,1.8809814,66.8110352c-0.9659424,17.1398926-0.3028564,34.0401611,2.0133057,50.7295532
		c1.8234863,13.1397705,1.1722412,25.6652222-0.4692383,38.6103516c-1.581543,12.4717407-1.4644775,25.163269-1.9851074,37.7628174
		c-0.2041016,4.940979,0.1159668,9.9093628-0.2102051,14.8382568c-0.5255127,7.9385986-3.3474121,16.2835083-1.7241211,23.6964111
		c4.0723877,18.5957031,3.7199707,36.9932861,1.7797852,55.6269531c-0.4460449,4.2828369-0.1442871,8.6554565-0.027832,12.9825439
		c0.4561768,16.9632568,0.8886719,33.9279785,1.5095215,50.8856201c0.303833,8.2975464,1.0744629,16.5767822,1.4953613,24.8713989
		c0.2697754,5.3154907,0.6013184,10.6594238,0.3382568,15.9624634c-0.3411865,6.8795776-1.583374,8.2893677-8.1121826,9.085144
		c-7.9217529,0.9657593-15.8964844,1.5706177-23.8652344,2.0518799c-6.6468506,0.4013672-13.4204102-0.2858887-19.9610596,0.6913452
		c-33.2828369,4.9721069-66.5081787,10.3290405-99.7537842,15.5512085
		c-1.3740845,0.5335083-29.4755249,0.6376953-28.2631226,1.2832031c-0.4905396,0.4556274-0.3485107,7.4133301-0.7659302,8.2340698
		c4.9361572,0.7468262,34.7747803,9.8079224,39.7340698,10.3404541c19.1735229,2.0588989,64.6917114,1.8568115,83.8482056,4.0587158
		c15.8590088,1.822937,31.6704102,4.0667114,47.4912109,6.2111206c5.9802246,0.8105469,8.3803711,2.9730225,9.1203613,9.9413452
		c0.7703857,7.255188,0.8752441,14.6296997,0.6445312,21.9321289c-0.4382324,13.8589478-6.9162598,18.9370728-20.6932373,17.1254272
		c-4.2354736-0.5569458-8.8312988-1.4478149-12.8013916-0.4154053c-17.1292725,4.4544067-34.4401855,7.1279907-52.1333008,7.3510742
		c-0.0012207,0.0020752-0.001709,0.0039673-0.0029297,0.0060425c0.0003662-0.0025024,0.0006104-0.0050049,0.0009766-0.0075073
		c-5.5397949-0.0881348-11.1365967-0.3686523-16.8409424,5.0306396c8.0062256,1.0261841,14.4250488,1.8486938,20.8410645,2.671814
		c0.0008545-0.0001831,0.001709-0.0004272,0.0025635-0.0006104c0,0.000061,0,0.000061,0,0.0001221
		c20.7954102,2.1376953,41.6889648,3.6157837,62.3455811,6.6864624
		c10.6220703,1.5792236,18.4671631,8.5286865,19.0230713,19.9575195c0.3549805,7.2973022,0.395752,14.6256714,0.2097168,21.9307861
		c-0.6079102,23.8768311-2.130127,47.7714233,2.1750488,71.4956665v0.000061v0.000061
		c0.1206055,3.602478,0.1479492,7.2110596,0.3837891,10.8059692c0.3419189,5.2127686,1.3017578,10.4281616,1.1652832,15.6203613
		c-0.2758789,10.4735718-1.1130371,20.932373-1.7183838,31.3972168l0.0194092,0.0216064
		c-0.6154785,3.37677-1.230957,6.7536011-1.8464355,10.1303101c0,0,0,0,0.0001221,0.0002441
		c-0.1258545,17.791748-0.0794678,35.5869141-0.4249268,53.3742676c-0.364502,18.7753906,2.2426758,37.6477051-1.7064209,56.315918
		c-0.0003662-0.0004883-0.0007324-0.0007324-0.0010986-0.0012207c-0.6719971,3.8823242-1.9688721,7.7763672-1.8964844,11.6450195
		c0.1984863,10.6123047,1.4139404,21.2131348,1.4259033,31.8195801
		c0.0245361,21.6645508-4.6793213,22.9204102-20.9718018,23.1262207
		c-30.5681152,0.3867188-61.1384277,1.043457-91.6889648,2.1210938c-9.3911133,0.3308105-18.9926758,1.0256348-30.1155396,5.6494141
		c8.5848999,1.5527344,14.9692993,2.7075195,21.3538208,3.8625488c0-0.0002441,0-0.0002441,0-0.0002441
		c4.9442139,0.6728516,9.8688965,1.626709,14.8359375,1.9714355c25.532959,1.7724609,51.2426758,1.5009766,76.4263916,7.1955566
		c4.4986572,1.017334,9.3155518,0.5446777,13.9061279,1.265625c4.4135742,0.6931152,8.7241211,2.0422363,12.2124023,2.8918457
		c0.8009033,6.4023438,1.3713379,11.2900391,2.0323486,16.1650391c0.8880615,6.5512695,2.3258057,13.0688477,2.6519775,19.6445312
		c0.3950195,7.9641113-0.4516602,15.9873047-0.1210938,23.9580078c0.1882324,4.5412598,0.8930664,9.3654785,2.7119141,13.4658203
		c3.0932617,6.9709473,3.7980957,14.0395508,3.4621582,21.4401855c-0.6932373,15.2666016-1.3236084,30.5361328-1.9404297,45.8059082
		c-0.3961182,9.8068848-1.4812012,11.046875-10.9029541,13.9020996
		c-15.8839111,4.8127441-32.1710205,4.7441406-48.5218506,4.5778809
		c-9.2297363-0.0935059-16.9603271-2.9431152-22.8112793-10.260498
		c-3.3912354-5.8352051-6.7836914-11.6723633-10.9321289-18.8103027c-0.0645752-0.2524414-0.1298828-0.5080566-0.1916504-0.7497559
		c-7.4257812,5.8537598-20.0168457,20.0185547-26.9160156,25.4580078c-0.0007324,0.0002441-0.0014648,0.0004883-0.0021973,0.0009766
		c-2.3320312,0.0356445-4.6652832,0.1374512-6.9962158,0.0974121c-31.6311646-0.5456543-63.2611694-1.1569824-94.8930054-1.6530762
		c-17.6569824-0.2766113-35.3165283-0.4309082-52.9755859-0.4855957c-2.9598389-0.0092773-6.0754395,0.3205566-8.8557739,1.2666016
		c-9.7702637,3.3242188-19.6040649,2.763916-29.6431885,1.7043457c-11.5732422-1.2219238-23.552002-3.7546387-34.772522-1.9992676
		c-18.3821411,2.8754883-36.513855,1.1225586-54.7559204,1.0834961
		c-12.6553345-0.0268555-25.3137207-0.0065918-37.9646606-0.2866211c-15.6259155-0.3457031-31.244873-1-46.868103-1.4770508
		c-3.6598511-0.1120605-7.3280029,0.0375977-10.9869995-0.0864258c-5.3748169-0.1818848-8.5736084-2.6411133-9.3256226-8.3371582
		c-1.0886841-8.2470703-2.6288452-16.4333496-3.9484253-24.6501465c-1.4447021-8.996582-2.8575439-17.9980469-4.2843018-26.9975586
		c-0.0199585,0.0019531-0.039917,0.0039062-0.0598755,0.0058594c-0.140625-1.9833984-0.28125-3.9665527-0.421875-5.949707
		c-1.0499268,1.1501465-1.260498,2.3740234-1.4467773,3.6018066c-2.5479126,16.7834473-10.7637939,35.855957-13.562561,52.5974121
		c-1.4586182,8.7250977-3.8864746,10.7871094-12.4569702,11.4772949
		c-9.9525757,0.8010254-19.9290161,1.4145508-29.9069824,1.7692871c-17.0397339,0.6062012-33.8924561-0.8566895-50.651123-4.2700195
		c-9.4130249-1.9169922-19.3193359-3.7719727-28.479248,0.6616211c-6.2745972,3.0366211-12.5608521,4.0219727-19.3096924,3.8959961
		c-7.3278809-0.1369629-14.6606445,0.0043945-21.9901123-0.0737305
		c-13.2039795-0.1403809-16.1259766-2.8884277-17.6813965-16.0639648
		c-0.4667969-3.9533691-0.2036133-8.3835449-5.6570435-11.9035645c0,0.0771484,0.0002441,0.1450195,0.0003052,0.2209473
		c-0.000061-0.0002441-0.0001831-0.0007324-0.0002441-0.0009766c-5.6644287,8.782959-18.678833,20.309082-27.4306641,21.8366699
		c-6.2078857,1.0837402-12.5175171,2.0563965-18.7976685,2.1665039c-18.6066284,0.3271484-37.2231445,0.3999023-55.8322754,0.21875
		c-64.2647095-0.6259766-128.527771-1.4160156-192.7918091-2.1054688
		c-9.6578369-0.1037598-19.3466797,0.4660645-28.9694214-0.1218262c-11.7871094-0.720459-23.3968506,0.2312012-34.6547852,3.2797852
		c-9.390564,2.5424805-17.963501,2.5432129-27.1420288-1.1704102c-9.9006348-4.0061035-11.5024414-5.6633301-12.4476318-16.5063477
		c-0.8330688-9.5581055-2.5450439-19.0471191-4.1132812-28.5266113c-0.3040771-1.8381348-1.7347412-3.4899902-2.8484497-5.614502
		c0.0018311,0.1428223,0.0036621,0.2836914,0.0054932,0.4265137c-1.8895264,3.1062012-2.5103149,6.2717285-3.4331665,9.3447266
		c-2.2885742,7.6220703-8.3621216,27.479248-10.8973389,35.0217285c-1.3046875,3.8811035-3.3773193,7.5336914-8.1172485,7.7155762
		c-14.5690918,0.5581055-29.1853027,1.7629395-43.7073364,1.0876465
		c-11.9827271-0.5571289-14.1439819-4.0229492-14.7719116-16.5390625
		c-0.2856445-5.6936035-1.0644531-11.0725098-6.2981567-15.5161133c-1.5288086,1.9550781-2.6885376,3.4379883-3.8483276,4.9208984
		c-0.9472656,1.7509766-2.1647339,3.409668-2.7980347,5.2675781c-4.2286377,12.4040527-13.9221802,18.0134277-25.9328613,18.4179688
		c-17.947876,0.6052246-35.9550781-0.0253906-53.9210815-0.6159668c-25.2960815-0.8312988-50.5575562-1.970459-75.8163452,1.0217285
		c-9.5554199,1.1313477-19.272522,2.140625-28.8408203,1.6723633c-22.2681274-1.0898438-44.4725952-3.4580078-66.7387695-4.6184082
		c-12.246582-0.6376953-24.7896729-1.3166504-36.805603,0.5515137c-24.5129395,3.8110352-49.0740967,4.1860352-73.7192993,4.074707
		c-4.3044434-0.0192871-8.5980835-0.9350586-12.909668-1.2705078c-4.8113403-0.3747559-7.7835083-2.8074951-9.9225464-7.1362305
		c-6.757019-13.6739502,2.8897095-14.710083-14.7205811-43.0637207l-4.1418457,0.9309082
		c-0.0687866,0.5454102-3.7545166,2.1943359-3.8302002,2.7387695c-2.3783569,3.7536621,0.4769897,8.2993164-1.8271484,12.064209
		c-0.232605,12.2172852,1.0004272,24.6604004-5.4007568,35.7321777c-22.0524292,0.6323242-43.9477539,1.487793-65.8511353,1.8261719
		c-23.6398315,0.3649902-47.3049927,0.829834-70.9241333,0.1069336
		c-12.8810425-0.3945312-25.7636108-2.7429199-38.5039673-5.0063477c-8.1876221-1.4543457-9.992981-4.1135254-9.4957886-12.5527344
		c0.684021-11.6115723,2.050293-23.184082,3.1967163-34.7666016c1.2469482-12.5976562,2.3795166-25.1052246-1.2874756-37.6223145
		c-1.3726196-4.685791-1.6022949-9.8977051-1.3641968-14.8220215c0.4655151-9.626709,1.7016602-19.2133789,2.4831543-28.8278809
		c1.3740845-16.9052734,3.1452026-33.8051758-1.9439087-50.515625c-1.0394897-3.4135742-0.8914185-7.2441406-0.9559326-10.8881836
		c-0.1769409-9.9848633-0.2007446-19.9729004-0.2391357-29.9594727
		c-0.0637207-16.5908203-0.0859375-33.1813965-0.1383057-49.7719727c-0.0140381-4.4567871,0.0316162-9.581543,5.1027832-10.8188477
		c9.9164429-2.4199219,18.6547852-8.0805664,29.5548706-8.1665039c19.3557129-0.1523438,38.3729248-3.9230957,56.9668579-9.4328613
		c1.9075317-0.5654297,3.6053467-1.8376465,5.4004517-2.7817383c-0.1278076-0.2705078-0.2556152-0.5410156-0.3834229-0.8114014
		c0.0351562-0.0032959,0.0703735-0.0064697,0.1055298-0.0096436c-0.0408325-0.010498-0.0841675-0.0214844-0.1251831-0.0319824
		c-0.0291138-0.0616455-0.0582275-0.123291-0.0873413-0.1848145c-0.1569214,0.0140381-0.3138428,0.0281982-0.4707642,0.0423584
		c-15.1757812-3.8747559-40.2094727-10.2479248-55.1047974-12.2642822
		c-7.50354-1.0158691-15.3079834-0.5953369-22.9035034,0.0422363c-10.7268066,0.8999023-15.7979126-1.5974121-17.9540405-12.03125
		c-1.4567871-7.0500488-1.3863525-14.4978027-1.3109741-21.760498c0.0929565-8.9588013,0.9309082-17.9087524,1.3865356-26.8655396
		c0.253479-4.9818115-0.1035156-10.0458984,0.659668-14.9412231c2.4836426-15.9299927,1.4224243-31.7700195,0.3186646-47.7406616
		c-0.8779907-12.7039795-5.0892944-25.5604858,0.6352539-38.3696899c1.3831787-3.0946655,0.5011597-7.2213135,0.5767212-10.8751831
		c0.1099854-5.319397-0.0454102-10.6509399,0.25354-15.958252c0.4723511-8.3851929,2.229126-10.5530396,10.6247559-11.5424805
		c14.8623657-1.7514648,29.7799072-3.0356445,44.6743774-4.5153198c-0.373291-0.892395-0.7965088-1.5968018-1.2583008-2.1558838
		c3.9351196-0.2261353,7.8239746-1.137085,11.5272217-3.418396c1.2304688-0.3126831,2.4609985-0.6253052,4.5161133-1.147644
		c-14.1997681-1.8153687-27.546814-3.6829224-40.9364014-5.1673584c-6.9786377-0.7738037-12.3728638-3.7429199-17.4484863-8.6028442
		c-10.2904053-9.8536377-15.2213745-22.1682739-15.5761719-35.7450562
		c-0.7032471-26.9093628-1.5742188-53.81073,2.5032959-80.7127686c2.2692261-14.9719849,3.3040771-30.3898926,1.3474731-45.6738281
		c-2.4175415-18.8844604-3.6323853-37.7286377-0.6273804-56.7160034c1.2409668-7.8410034,1.335022-15.8768921,1.71698-23.8353882
		c0.2844238-5.9257812-0.2442017-11.9144287,0.3604736-17.7958984c1.2293701-11.9567871,3.1593628-14.1912231,14.7963257-16.0305786
		c8.5220337-1.3471069,17.1943359-1.9009399,25.8234863-2.3800659c15.9459839-0.8853149,31.9541016-0.9360962,47.8535156-2.2992554
		c17.2250366-1.4766235,60.5094604-8.0224609,77.6810913-10.1203613c0.0271606-0.1345825,0.0269165-0.2442627,0.0411377-0.3671265
		c1.9971924-0.4418335,3.994751-0.913147,5.9910278-1.2797241c2.7612305-0.2584839,5.5224609-0.5169678,8.2836304-0.7755737
		c-1.7810059-1.8139038-3.5892944-2.4755859-5.4448242-2.9545898c-33.1229858-8.5530396-67.0775757-9.3673706-100.9604492-10.567749
		c-14.6277466-0.5182495-29.2889404-0.022583-43.9311523-0.2410278c-4.9581909-0.0737915-10.0136108-0.4390869-14.836731-1.5136719
		c-15.9104614-3.5449219-22.7924805-13.8469849-20.3739624-30.0543823
		c1.2757568-8.5491333,2.9100342-17.0454712,4.1390991-25.6005249c0.4660034-3.2438354,1.1449585-6.8775635,0.1821289-9.8303223
		c-3.4974365-10.7260132-2.7667236-21.7007446-2.925354-32.6484375c0.3692017-1.3070068,0.6092529-2.6263428,0.7769775-3.9528809
		c0.6095581-2.855835,1.215332-5.7115479,1.1091309-8.5405884c-0.3481445-9.2718506,42.5747681-26.729248,50.3432617-29.5869751
		c6.3692017-2.3430786,9.5546265-6.2818604,11.5847168-11.7992554c0.0274658,0.0073853,0.0548706,0.0146484,0.0823364,0.0220337
		c0.0248413-0.1368408,0.0340576-0.2613525,0.050293-0.3914795c0.1071777-0.3024292,0.2133179-0.6060791,0.31427-0.9177246
		c-0.0753784,0.0122681-0.1793823,0.0328979-0.2632446,0.0476074c-0.0717773-3.1045532-2.9128418-3.998291-5.3234253-4.8672485
		c-7.1981201-2.5942993-14.4688721-5.0040283-21.7778931-7.2706909c-11.0869751-3.4384766-22.21698-6.7411499-33.3573608-10.003479
		c-4.3824463-1.2833252-6.4887695-3.3391113-6.0586548-8.5592041c1.2266235-14.8864746,2.0560913-29.8206177,2.5159912-44.7521362
		c0.9013062-29.262207,2.0112915-58.5357666,1.9787598-87.8035889c-0.0322266-28.9614868-1.388855-57.9211426-2.1126099-86.8830566
		c-0.1663818-6.6588135,0.8856201-13.5192261-0.3692017-19.9462891c-3.2217407-16.5014648-0.7512207-32.788147,2.5603027-48.5680542
		c5.1529541-24.5544434,3.9424438-48.9676514,2.8446045-73.5966797
		c-0.5319824-11.9348755,0.1138916-23.9283447,0.4041138-35.8909912c0.1304932-5.3796387,2.9160156-8.3691406,8.5097656-9.225647
		c19.3952637-2.9696045,38.7371216-6.2858887,58.1245117-9.3087769c7.2009888-1.1228638,14.4714966-1.7999878,21.7103271-2.6803589
		c-0.321106-0.4100952-0.6045532-0.8596191-0.9772949-1.2156372c-0.227417-0.2171631-0.5922852-0.2905884-0.8953857-0.4285278
		c-33.765686,1.8296509-67.4845581,4.2340698-101.7329712,6.9890747c0,142.3320923,0,283.4346313,0,424.8970947
		c5.1748657,1.5849609,10.1931152,3.2734375,15.2940063,4.6574707
		c18.6333008,5.0557861,37.2907104,10.0229492,55.9407349,15.0172119
		c-12.383667,2.7671509-50.189209,12.8925781-56.6343384,14.0065308
		c-15.2595215,2.637146-15.8775024,3.5390015-13.2202148,18.6413574c0.1137695,0.6466675,0.336792,1.274292,0.5089722,1.9105835
		l-0.000061,0.0001221c0.017334,2.6621704,0.034668,5.3244019,0.0519409,7.9865723
		c-1.6882324,7.2307129-0.0996704,14.7369995-1.8475342,21.9626465c-0.1101074,15.9765015-0.0792847,31.9556885-0.3701172,47.928833
		c-0.2877197,15.8032227-2.6017456,31.6304321-0.0279541,47.4260864c2.1664429,0.3665771,3.456665,0.7290039,4.7599487,0.7845459
		c31.934082,1.3597412,63.8765869,2.5390625,95.802124,4.0733032c19.9304199,0.9579468,39.8355103,2.4423828,59.7520142,3.6905518
		c0.2460327,0.157959,0.4924927,0.2830811,0.7387085,0.4262695c-11.5324097,1.0079346-25.2216797,2.4285889-29.1135254,3.4619141
		c-43.7901001,1.5940552-87.5802002,3.1881714-131.1279297,4.7734375
		c-2.6383667,10.0255127-2.5715942,286.9847412,0.1071167,296.1015015
		c5.5682373,0.4577637,11.4659424,0.9424438,17.3637085,1.4271851c8.0713501,0.7096558,16.071167,2.0604248,24.0738525,3.1958008
		c-4.7431641,0.0899048-9.447876,0.7382202-14.0848999,2.3652344c-9.4738159,0.7109985-18.9476318,1.421936-28.1325684,2.1112061
		c-2.3898926,21.8185425-1.7705688,201.6260986,0.7462769,210.112915c3.0059204,0.3344727,6.2564697,0.8525391,9.5256958,1.0341797
		c17.9405518,0.9973145,35.8856812,1.9118652,53.8292847,2.8549805c3.3533936,0.3395996,8.939209,1.9082031,14.7105713,3.166748
		c-2.927124,0.5756836-5.8309326,1.4423828-8.7174072,2.5266113c-23.3800659,2.7988281-46.7600708,5.5976562-69.7932739,8.3549805
		c-2.8063965,13.5585938-3.387085,290.6396484-0.6693726,301.5883789c2.6629028,0.2258301,5.5641479,0.6862793,8.4656372,0.6875
		c61.6027832,0.0263672,123.2056274,0.0285645,184.8082275-0.0947266c3.149292-0.0063477,6.2963257-1.1774902,9.444397-1.8063965
		c2.1347656-8.7172852-0.8187866-17.7600098,1.6931763-26.453125c0.0852051-1.878418,0.1703491-3.7563477,0.2555542-5.6347656
		c1.8772583-6.409668-0.0941772-13.138916,1.7202759-19.6254883l0.6466064-0.3430176
		c3.3471069,4.9921875,1.3944702,10.7006836,3.2493286,15.7497559l-0.03125-0.1032715
		c2.9355469,3.635498-0.3792114,8.3659668,2.1173706,12.0783691c0.75177,6.9375,1.5211792,13.8730469,2.2485962,20.8134766
		c0.4238892,4.0437012,2.7756958,5.8796387,6.6842041,5.8305664c3.9940796-0.0500488,7.9869995-0.359375,11.9795532-0.3432617
		c107.2352905,0.4343262,214.4703979,0.9055176,321.7056885,1.3430176
		c16.6568604,0.0678711,33.3152466,0.09375,49.9707031-0.0751953c3.1970825-0.0324707,6.3840332-1.0700684,9.5756226-1.6437988
		c0.9069824-1.4133301,1.5487061-2.8540039,2.0249634-4.3120117c0.2567749,1.4914551,0.7885132,2.9487305,1.838501,4.3417969
		c2.8549194,0.5646973,5.7080078,1.6071777,8.5651245,1.6184082c23.6204834,0.0910645,47.2418823-0.0085449,70.862915-0.050293
		c2.7920532-8.2270508,4.9963989-21.1472168,6.0968018-33.1259766c0.1375732,10.6279297,0.2734985,21.1289062,0.4094238,31.6259766
		c3.2029419,0.5507812,6.4056396,1.5817871,9.6088867,1.5834961c125.6428833,0.0668945,251.2857056,0.0559082,376.9285278-0.048584
		c3.8800659-0.0031738,7.7592773-1.1030273,11.638916-1.6916504c0.2290649-2.8261719,2.1699829-5.5810547,4.1672363-8.3535156
		c0.4367065,2.7570801,1.383728,5.4968262,2.1622314,8.2424316c2.8624268,0.6037598,5.7149658,1.6730957,8.5889893,1.7348633
		c18.2412109,0.392334,36.4868774,0.723877,54.7317505,0.7719727c39.8288574,0.1047363,79.6581421,0.0449219,119.4873657-0.0109863
		c2.8623657-0.0041504,5.723938-0.5231934,8.9059448-0.8342285c0.7479858-7.7407227,1.414917-14.6416016,2.0817261-21.5429688
		c1.3605957-2.5092773,3.1792603-4.8706055,2.5905762-8.0112305c-0.6932983-5.5136719,1.2728271-11.8662109,3.0926514-18.0395508
		c0,5.3735352,0,10.7470703,0,16.1206055c-4.1359863,6.6484375,0.3302002,13.2714844,0.0582275,19.9084473
		c0.4390259,3.8374023,0.8779907,7.6748047,1.4190674,12.4042969c5.0580444,0,9.3306885-0.0002441,13.6033936,0.0002441
		c79.5355835,0.0119629,159.0736084,0.4125977,238.6057129-0.0991211
		c54.1980591-0.3486328,108.4500732,2.5102539,162.5940552-2.1191406c0.7443848-0.0214844,1.4887695-0.0427246,2.2331543-0.0639648
		c3.0593262-3.6813965-0.8833008-8.3637695,1.7319336-12.1088867l-0.0007324,0.0021973
		c0.6616211-1.1000977,2.0385742-3.7998047,3.3256836-6.7426758c0.119873,0.3398438,0.2636719,0.6801758,0.4368896,1.0202637
		c0.2391357,3.8684082,0.4783936,7.7373047,0.7169189,11.6062012c0.0002441-0.0002441,0.0003662-0.0004883,0.0004883-0.0009766
		c0,0.0002441,0,0.0004883,0,0.0004883c0,2.4614258,0,4.9228516,0,8.5778809c13.77771,0,26.3426514-0.1140137,38.9035645,0.0632324
		c4.2380371,0.0595703,8.4655762,0.8569336,12.697876,1.3171387c15.3016357,0.0288086,30.6033936,0.0578613,45.9051514,0.0866699
		c0.4816895-4.2421875,1.369873-8.4829102,1.3822021-12.7265625c0.1159668-39.8405762,0.0809326-79.6813965,0.0925293-119.5222168
		c0.0031738-10.9599609,0.0667725-21.920166-0.0070801-32.8796387c-0.0218506-3.2390137-0.4190674-6.4753418-0.7088623-10.6408691
		c-7.5625-0.576416-14.4301758-1.2861328-21.3155518-1.5905762c-25.8557129-1.1442871-51.7186279-2.1281738-77.5748291-3.262207
		c-2.6259766-0.1149902-5.2253418-0.8366699-7.8370361-1.2768555c-1.3829346-0.9035645-2.7781982-1.5866699-4.1834717-2.0922852
		c2.197998-0.1940918,4.3811035-0.5935059,6.534668-1.3869629c28.2258301-0.8535156,56.451416-1.7133789,84.6779785-2.5500488
		c2.6591797-0.0788574,5.3243408-0.0666504,7.9841309,0.0058594c10.6252441,0.2893066,11.4599609-0.0065918,11.7419434-10.8833008
		c0.7415771-28.5849609,1.1923828-57.1809082,1.4377441-85.7751465c0.2397461-27.9475098-0.0065918-55.8989258,0.1564941-83.8474121
		c0.0466309-7.9555664,1.1508789-15.9093628,1.1032715-23.8600464c-0.0654297-10.9435425-1.0415039-21.8809204-1.1340332-32.8251343
		c-0.1882324-22.2734985-0.0466309-44.5495605-0.0407715-66.824646c0-20.4355469,0-40.8709106,0-62.0761108
		c-18.90271-1.3970947-36.5894775-2.7041016-54.276123-4.0112915c-4.9050293-0.8095703-9.829834-1.331543-14.7728271-1.5910034
		c1.6265869-0.5020752,3.2459717-1.161499,4.8551025-2.0445557c20.9924316-1.6953125,42.2427979,0.6355591,64.137207-3.7050171
		c-0.517334-20.0612183,1.0438232-39.8023682-0.9001465-60.1060791c-6.0849609-0.706604-11.3144531-1.4189453-16.5654297-1.9013062
		c-10.2458496-0.940918-20.4987793-1.8149414-30.7574463-2.6065674
		c-25.9666748-2.0036011-74.8376465-15.5322876-101.6687012-17.9354248
		c25.0853271-2.2111206,50.1673584-4.4596558,75.2418213-6.7915649c7.9467773-0.7391968,15.8452148-2.0889893,23.802002-2.614624
		c14.578125-0.9627075,29.1868896-1.4542847,43.7724609-2.3182983c2.164917-0.1281128,4.2729492-1.2164307,6.7880859-1.9755249
		c0.1713867-199.1638184,2.5112305-397.8478394,1.0622559-597.6497803
		c-45.3361816-2.0453491-94.6108398-6.7106323-139.7158203-9.1783447
		c8.9470215-0.8426514,18.0288086,0.9345703,26.9296875-0.8057861c18.5892334-0.7748413,37.1734619-1.7070312,55.769043-2.2720337
		c13.6141357-0.4136353,27.2470703-0.1980591,40.8632812-0.5668335c5.182373-0.1403198,10.3414307-1.1294556,15.4689941-1.7268066
		c0-0.633667,0-1.2557983,0-1.8868408c0.159668,0.0155029,0.3171387,0.019104,0.4783936,0.043396
		c0.1204834-5.2061768-0.0759277-9.8480225-0.4783936-14.3893433c0-12.7539673,0-25.1115723,0-37.4605103
		c0-0.000061,0-0.0001831,0-0.0002441c0.3537598-4.616333,0.9963379-9.2313232,1.0174561-13.8491821
		c0.2694092-58.8551025,0.5028076-117.7105103,0.6343994-176.56604
		c0.0898438-40.2323608,0.0219727-80.4650269-0.0305176-120.6975098
		C1174.8813477-246.9077148,1174.4443359-250.0922852,1174.1744385-253.7368164z"/>
</g>
</svg>
