<?xml version="1.0" encoding="utf-8"?>
<!-- Generator: Adobe Illustrator 29.8.1, SVG Export Plug-In . SVG Version: 9.03 Build 0)  -->
<svg version="1.1" id="Message" xmlns="http://www.w3.org/2000/svg" xmlns:xlink="http://www.w3.org/1999/xlink" x="0px" y="0px"
	 viewBox="0 0 782.52 797.15" style="enable-background:new 0 0 782.52 797.15;" xml:space="preserve">
<g id="Message_00000150822517429695558730000015485080498952331942_">
	<path style="fill:#FEF8D4;" d="M716.57,159.96l-21.05-0.03c0.04-1.24-2.18-12.57-4.71-16.74c-13.88-23.38-57.03-40.43-108.46-40.51
		c-11-0.01-21.61,0.79-31.71,2.22c-13.11-14.08-33.8-26.03-59.51-34.52c-18.53-6.16-39.71-10.51-62.55-12.55
		c-5.06-0.47-10.22-0.8-15.44-1.02c-0.65-0.03-1.3-0.05-1.95-0.08c-0.98-0.04-1.95-0.08-2.96-0.1c-1.73-0.05-3.55-0.09-5.32-0.1
		c-1.34-0.04-2.61-0.04-3.95-0.04c-0.36,0-0.66,0-1.02,0c-1.15,0.01-2.33,0.02-3.45,0.05c-2.26-0.01-4.49,0.04-6.69,0.13
		c-19.26,0.59-37.71,2.82-54.72,6.4c-1.26,0.27-2.5,0.52-3.74,0.81c-1.91,0.42-3.71,0.86-5.49,1.28c-1.27,0.33-2.6,0.65-3.88,1.01
		c-1.78,0.46-3.5,0.92-5.18,1.41c-1.28,0.36-2.58,0.73-3.83,1.11c-0.35,0.12-0.69,0.2-1,0.3c-1.39,0.44-2.81,0.89-4.16,1.34
		c-1.77,0.57-3.47,1.14-5.17,1.74c-2.75,0.95-5.44,1.99-8.05,3.03c-8.29,3.31-15.97,7.03-22.84,11.06
		c-2.55,1.47-4.96,2.95-7.25,4.46c-0.72,0.54-1.57,1.09-2.35,1.63c-0.79,0.57-1.56,1.12-2.31,1.68c-1.08,0.8-2.15,1.6-3.16,2.4
		c-0.45,0.34-0.84,0.68-1.26,1.02c-0.94,0.77-1.87,1.55-2.76,2.35c-0.8,0.67-1.54,1.35-2.28,2.06c-0.97,0.89-1.92,1.84-2.83,2.78
		c-10.04-1.44-20.63-2.26-31.6-2.28c-1.08,0.01-2.16,0.01-3.24,0.03c-3.58,0.04-7.1,0.18-10.61,0.4
		c-18.36,1.06-35.38,4.33-50.04,9.24c-0.21,0.06-0.38,0.13-0.56,0.2c-30.33,10.23-50.44,27.51-50.81,47.1l-21.05-0.03
		c-36.79-0.05-66.87,14.84-67.23,33.22L0,762.96c-0.33,18.4,29.2,33.35,66,33.4l638.94,0.79c36.76,0.03,66.87-14.84,67.2-33.24
		l10.38-570.56C782.9,174.95,753.36,159.99,716.57,159.96z"/>
	<path style="fill:#FCF0B4;" d="M698.28,182.41l-19.57-0.02c0.04-1.14-2.03-11.68-4.37-15.57c-12.91-21.73-53.02-37.58-100.82-37.65
		c-10.23-0.01-20.08,0.73-29.48,2.05c-12.19-13.08-31.42-24.2-55.33-32.08c-17.22-5.73-36.92-9.77-58.14-11.67
		c-4.71-0.44-9.49-0.73-14.35-0.95c-0.6-0.02-1.22-0.05-1.81-0.07c-0.91-0.03-1.81-0.07-2.75-0.1c-1.61-0.05-3.3-0.09-4.95-0.09
		c-1.24-0.03-2.43-0.04-3.68-0.04c-0.34,0-0.61,0.01-0.95,0.01c-1.07,0.01-2.16,0.02-3.2,0.05c-2.1-0.01-4.18,0.02-6.23,0.12
		c-17.9,0.56-35.05,2.63-50.87,5.95c-1.17,0.24-2.33,0.49-3.48,0.74c-1.77,0.39-3.46,0.79-5.11,1.18c-1.18,0.3-2.42,0.6-3.6,0.94
		c-1.66,0.42-3.24,0.85-4.83,1.33c-1.19,0.33-2.39,0.68-3.55,1.04c-0.32,0.11-0.64,0.18-0.92,0.29c-1.29,0.41-2.6,0.82-3.86,1.25
		c-1.65,0.53-3.22,1.07-4.81,1.63c-2.56,0.89-5.06,1.84-7.48,2.81c-7.71,3.08-14.84,6.53-21.23,10.27
		c-2.36,1.37-4.61,2.74-6.73,4.15c-0.67,0.5-1.45,1.01-2.17,1.51c-0.73,0.54-1.46,1.04-2.15,1.56c-1.01,0.73-1.99,1.48-2.94,2.23
		c-0.42,0.33-0.77,0.64-1.16,0.94c-0.89,0.72-1.74,1.44-2.56,2.18c-0.74,0.63-1.44,1.26-2.12,1.91c-0.91,0.84-1.78,1.71-2.63,2.57
		c-9.33-1.33-19.18-2.1-29.37-2.11c-1.01,0-2.01,0.01-3.02,0.01c-3.32,0.03-6.6,0.17-9.87,0.37c-17.06,0.98-32.89,4.04-46.51,8.58
		c-0.19,0.05-0.36,0.12-0.52,0.19c-28.19,9.51-46.89,25.58-47.24,43.79l-19.57-0.03c-34.2-0.04-62.17,13.79-62.5,30.89L32.2,742.95
		c-0.31,17.1,27.15,31.01,61.35,31.05l593.96,0.73c34.18,0.02,62.17-13.79,62.47-30.9l9.65-530.38
		C759.93,196.36,732.47,182.45,698.28,182.41z"/>
	<g>
		<g>
			<path style="fill:#D80C03;" d="M395.48,93.63c-6.76,12.79-15.16,24.62-23.41,36.47c-9.71,13.97-18.99,28.21-28.42,42.35
				c-0.01-14.4,0.58-28.06,0.38-40.3c-16.46,5.93-33.82,12.49-51.54,18.89c12.12-15.56,23.33-29.63,34.74-42.15
				c9.97-10.96,19.55-21.06,29.91-29.66c0.44-0.36,0.87-0.72,1.3-1.08c1.39-1.14,2.81-2.26,4.25-3.32
				c6.22-4.71,12.83-8.84,19.05-12.96c2.34-1.55,4.85-2.98,7.18-4.49l22.43,4.93C405.59,72.48,400.96,83.27,395.48,93.63z"/>
			<path style="fill:#B80500;" d="M362.22,117.92l2.05-2.95c8.83-12.68,17.18-24.65,23.95-37.48c2.31-4.37,4.47-8.79,6.72-13.42
				c-1.06,0.7-2.13,1.4-3.2,2.1c-5.42,3.56-11.04,7.23-16.16,11.1c-1.38,1.05-2.83,2.19-4.43,3.48c-0.2,0.17-1.37,1.16-1.37,1.16
				c-10.65,8.85-20.76,19.35-32.63,32.4c0.27-0.1,23.22-8.37,23.22-8.37l0.24,14.31C361.16,119.45,361.7,118.68,362.22,117.92z"/>
		</g>
		<g>
			<path style="fill:#E20D03;" d="M398.37,92.14c6.88,12.72,15.38,24.48,23.73,36.26c9.83,13.88,19.23,28.03,28.8,42.09
				c-0.13-14.4-0.83-28.05-0.73-40.3c16.51,5.78,33.94,12.18,51.7,18.42c-12.26-15.44-23.6-29.42-35.11-41.85
				C456.7,95.9,447.03,85.88,436.6,77.38c-0.44-0.35-0.88-0.72-1.31-1.07c-1.4-1.13-2.83-2.23-4.28-3.3
				c-6.28-4.66-12.9-8.72-19.16-12.8c-2.36-1.53-4.88-2.94-7.22-4.42l-22.39,5.13C388.08,71.08,392.79,81.83,398.37,92.14z"/>
			<path style="fill:#C40500;" d="M431.83,116.14l-2.08-2.93c-8.94-12.6-17.4-24.51-24.29-37.26c-2.35-4.34-4.55-8.75-6.84-13.36
				c1.06,0.69,2.14,1.38,3.22,2.07c5.45,3.5,11.1,7.13,16.26,10.95c1.39,1.04,2.85,2.16,4.46,3.44c0.2,0.17,1.38,1.15,1.38,1.15
				c10.73,8.75,20.94,19.17,32.92,32.1c-0.27-0.1-23.3-8.17-23.3-8.17l-0.12,14.31C432.92,117.66,432.37,116.89,431.83,116.14z"/>
		</g>
		<g>
			<path style="fill:#D11E0B;" d="M490.17,41.73c-1.36-2.74-3.23-5.07-5.4-6.43c-3.35-2.09-7.78-1.85-11.46-0.36
				c-3.68,1.48-6.78,4.02-9.86,6.47c-0.15,0.11-0.29,0.23-0.43,0.35c-5.3,4.21-10.76,8.26-16.31,12.14
				c-3.08,2.14-6.24,4.26-9.51,6.12c-5.17,2.95-10.62,5.33-16.48,6.33c-6.05,1.04-12.26,0.56-18.38,0.04c-0.05,0-0.1-0.01-0.15-0.01
				l0.02,4.2c1.13,0.51,2.18,0.91,2.58,1.06c3.94,1.54,8.03,2.7,12.2,3.5c2.83,0.55,5.69,0.94,8.56,1.16
				c5.63,0.47,11.32,0.35,16.95-0.23c9.41-1,18.68-3.1,27.64-6.06c1.88-0.62,4.01-1.25,6.2-1.98c1.24-0.42,2.49-0.86,3.74-1.36
				c4.87-1.94,9.45-4.62,11.5-8.97C493.55,53.44,492.72,46.88,490.17,41.73z"/>
			<path style="fill:#AF1509;" d="M491.55,57.71c-2.04,4.35-6.61,7.02-11.5,8.97c-1.24,0.5-2.5,0.94-3.74,1.36
				c0.14-1.97-0.61-3.77-2.35-5.05c-3.28-2.4-7.15-1.02-10.8-0.61c-3.36,0.38-6.74,0.76-10.12,1.21c-2.89,0.4-5.9,0.85-8.77,0.07
				c-1.16-0.32-2.26-0.79-3.21-1.54c-0.23-0.18-2.21-2.52-2.05-2.57c-0.51,0.13-1.02,0.25-1.53,0.38c-0.11,0.03-0.22,0.05-0.32,0.07
				c3.27-1.87,6.44-3.98,9.51-6.12c5.55-3.88,11.01-7.92,16.3-12.14c0.15-0.11,0.29-0.23,0.43-0.35c3.09-2.45,6.19-5.01,9.86-6.47
				c3.69-1.48,8.11-1.73,11.46,0.36c2.18,1.36,4.03,3.69,5.4,6.43C492.72,46.88,493.55,53.44,491.55,57.71z"/>
			<path style="fill:#FC2D0F;" d="M491.15,41.48c-3.77-13.94-10.35-26.14-18.78-37.85c-0.69-0.95-1.39-1.9-2.36-2.55
				c-3.44-2.29-11.59-0.42-15.12,0.79c-5.15,1.8-10.53,3.89-14.68,7.43c-7.54,6.41-13.49,13.24-19.05,21.44
				c-5.46,8.06-9.5,14.04-16.1,22.16l-2.87,16.39c16.13,4.51,33.82,3.88,49.06-3.05c10.44-4.75,20.48-12.18,31.94-11.69
				c5.28,0.23,8.76,1.65,8.76,1.65S494.46,53.76,491.15,41.48z"/>
			<path style="fill:#D11E0B;" d="M441.81,45.32c-0.26-1.69-1.4-3.3-3.05-3.78c-1.03-0.3-2.13-0.13-3.16,0.14
				c-2.26,0.6-4.36,1.69-6.32,2.95c-5.34,3.42-9.8,8.08-14.99,11.71c-3.61,2.51-7.82,4.54-12.12,5.06l0.02,4.16
				c6.89-0.34,13.75-1.79,20.42-3.64c7.17-1.98,14.91-5,18.23-11.65C441.59,48.74,442.08,47,441.81,45.32z"/>
			<path style="opacity:0.3;fill:#FFFFFF;enable-background:new    ;" d="M487.47,40.55c-0.36-2.56-1.48-5.29-2.07-7.05
				c-1.51-4.48-3.51-8.78-5.83-12.9c-1.81-3.21-3.8-6.28-5.92-9.29c-1.79-2.53-3.62-5.91-6.75-6.93c-2.27-0.74-4.89-0.25-6.83,1.13
				c-2.33,1.68-1.81,3.88-0.44,5.95c1.69,2.58,3.44,5.03,4.86,7.79c2.82,5.5,4.42,11.38,6.81,17.03c1.99,4.7,5.9,10.12,11.47,10.52
				c1.35,0.1,2.8-0.3,3.7-1.32C487.58,44.26,487.74,42.45,487.47,40.55z"/>
		</g>
		<g>
			<path style="fill:#D11E0B;" d="M302.94,42.57c1.33-2.76,3.17-5.1,5.34-6.49c3.33-2.12,7.76-1.92,11.45-0.46
				c3.69,1.45,6.81,3.96,9.92,6.39c0.15,0.11,0.29,0.23,0.43,0.33c5.33,4.16,10.83,8.17,16.41,11.98c3.08,2.12,6.28,4.21,9.57,6.04
				c5.2,2.91,10.66,5.23,16.53,6.17c6.05,0.98,12.26,0.44,18.38-0.12c0.05,0,0.1-0.01,0.15-0.01l0.02,4.2
				c-1.13,0.53-2.18,0.93-2.58,1.09c-3.92,1.58-8.01,2.76-12.16,3.62c-2.83,0.57-5.68,0.99-8.54,1.24
				c-5.63,0.51-11.31,0.45-16.95-0.09c-9.41-0.91-18.7-2.94-27.7-5.8c-1.88-0.61-4.02-1.22-6.22-1.92
				c-1.24-0.41-2.51-0.84-3.76-1.32c-4.88-1.9-9.49-4.54-11.57-8.87C299.65,54.3,300.43,47.73,302.94,42.57z"/>
			<path style="fill:#AF1509;" d="M301.69,58.56c2.08,4.33,6.68,6.96,11.57,8.87c1.24,0.49,2.5,0.92,3.76,1.32
				c-0.16-1.97,0.57-3.77,2.31-5.07c3.26-2.43,7.14-1.09,10.79-0.71c3.37,0.35,6.75,0.7,10.13,1.12c2.89,0.36,5.9,0.79,8.77,0.01
				c1.16-0.32,2.25-0.81,3.19-1.57c0.23-0.18,2.19-2.54,2.03-2.59c0.51,0.13,1.02,0.25,1.54,0.38c0.11,0.03,0.22,0.05,0.32,0.07
				c-3.29-1.84-6.48-3.92-9.57-6.04c-5.58-3.83-11.08-7.82-16.41-11.98c-0.15-0.11-0.29-0.23-0.43-0.33
				c-3.11-2.42-6.23-4.95-9.92-6.39c-3.7-1.45-8.13-1.66-11.45,0.46c-2.16,1.38-4,3.73-5.34,6.49
				C300.43,47.73,299.65,54.3,301.69,58.56z"/>
			<path style="fill:#FC2D0F;" d="M301.95,42.32c3.64-13.97,10.11-26.22,18.44-38.01c0.67-0.95,1.38-1.92,2.34-2.57
				c3.41-2.32,11.59-0.53,15.12,0.66c5.17,1.75,10.57,3.79,14.75,7.29c7.6,6.35,13.6,13.12,19.23,21.27
				c5.54,8.01,9.63,13.95,16.3,22.02l3.01,16.36c-16.09,4.65-33.78,4.18-49.08-2.62c-10.48-4.66-20.58-12-32.04-11.41
				c-5.28,0.27-8.74,1.73-8.74,1.73S298.74,54.64,301.95,42.32z"/>
			<path style="fill:#D11E0B;" d="M340.61,39.38c0.42-2.33,2.06-4.55,4.35-5.14c1.44-0.38,2.96-0.1,4.39,0.31
				c3.11,0.9,5.99,2.49,8.69,4.3c7.31,4.92,13.34,11.55,20.46,16.75c4.93,3.62,10.72,6.57,16.68,7.43l-0.17,5.77
				c-9.56-0.7-19.04-2.95-28.24-5.73c-9.89-2.99-20.56-7.44-24.95-16.8C340.81,44.13,340.18,41.72,340.61,39.38z"/>
			<path style="opacity:0.3;fill:#FFFFFF;enable-background:new    ;" d="M305.61,41.37c0.33-2.57,1.43-5.31,2.01-7.07
				c1.47-4.49,3.43-8.82,5.71-12.94c1.78-3.21,3.74-6.32,5.84-9.33c1.77-2.54,3.56-5.95,6.69-6.99c2.27-0.76,4.89-0.29,6.85,1.06
				c2.34,1.65,1.84,3.87,0.48,5.95c-1.66,2.6-3.4,5.06-4.79,7.83c-2.78,5.52-4.32,11.42-6.65,17.09
				c-1.95,4.72-5.8,10.17-11.38,10.62c-1.35,0.1-2.8-0.28-3.71-1.29C305.54,45.07,305.37,43.27,305.61,41.37z"/>
		</g>
		<path style="fill:#EF3420;" d="M407.36,72.54c0.03,0.16-1.74,0.97-1.95,1.07c-0.7,0.33-1.4,0.63-2.14,0.89
			c-4.4,1.55-9.31,1.55-13.82,0.51c-0.77-0.17-1.53-0.39-2.26-0.69c-0.21-0.08-2.18-1.02-2.11-1.16c1.61-3.49,2.08-7.37,2.53-11.18
			c0.21-1.79,0.41-3.59,0.38-5.39c-0.02-0.91-0.1-1.81-0.27-2.7c-0.1-0.5-0.77-1.83-0.37-2.25c0.15-0.16,0.37-0.23,0.58-0.31
			c3.28-1.05,6.78-1.79,10.24-1.65c1.69,0.08,3.38,0.37,4.96,1c0.38,0.15,3.13,1.2,2.97,1.89c-0.14,0.6-0.1,1.6-0.12,2.21
			C405.87,60.57,406.26,66.86,407.36,72.54z"/>
		<path style="opacity:0.3;fill:#FFFFFF;enable-background:new    ;" d="M402.98,52.2c-4.13-1.48-8.58-0.71-12.77,0.08
			c-0.95,0.18-1.57,1.39-1.28,2.26c0.33,1.02,1.26,1.47,2.26,1.28c1.95-0.37,3.55-0.67,5.47-0.75c1.97-0.1,3.5,0.04,5.34,0.7
			c0.91,0.33,2.06-0.38,2.26-1.3C404.5,53.42,403.95,52.55,402.98,52.2z"/>
	</g>
</g>
<g id="MessageText">
	<rect x="107.91" y="229.28" style="fill:#F9F9F9;" width="566.7" height="86.16"/>
	<g>
		<g id="Title">
			<g>
				<defs>
					<polygon id="SVGID_1_" points="108.91,230.28 109.91,230.28 108.91,231.28 					"/>
				</defs>
				<defs>
					<polygon id="SVGID_00000051361515947219150380000016052890536964444859_" points="106.91,228.28 105.91,228.28 106.91,227.28 
											"/>
				</defs>
				<clipPath id="SVGID_00000045620212638977923380000008962494725467146902_">
					<use xlink:href="#SVGID_1_"  style="overflow:visible;"/>
				</clipPath>
				
					<clipPath id="SVGID_00000137117092447997641020000014559239292569374336_" style="clip-path:url(#SVGID_00000045620212638977923380000008962494725467146902_);">
					<use xlink:href="#SVGID_00000051361515947219150380000016052890536964444859_"  style="overflow:visible;"/>
				</clipPath>
			</g>
		</g>
	</g>
	<rect x="107.91" y="345.21" style="fill:#F9F9F9;" width="566.7" height="86.16"/>
	<g>
		<g id="Text">
			<g>
				<defs>
					<polygon id="SVGID_00000016060963557359964830000003220078683938216381_" points="108.91,346.21 109.91,346.21 108.91,347.21 
											"/>
				</defs>
				<defs>
					<polygon id="SVGID_00000063597765049149921340000005094116189093956244_" points="106.91,344.21 105.91,344.21 106.91,343.21 
											"/>
				</defs>
				<clipPath id="SVGID_00000080892681067117709670000006552921046475857556_">
					<use xlink:href="#SVGID_00000016060963557359964830000003220078683938216381_"  style="overflow:visible;"/>
				</clipPath>
				
					<clipPath id="SVGID_00000129195326383073579010000017855140119099000239_" style="clip-path:url(#SVGID_00000080892681067117709670000006552921046475857556_);">
					<use xlink:href="#SVGID_00000063597765049149921340000005094116189093956244_"  style="overflow:visible;"/>
				</clipPath>
			</g>
		</g>
	</g>
	<rect x="107.91" y="535.14" style="fill:#F9F9F9;" width="566.7" height="86.16"/>
	<g>
		<g id="MovieTitle">
			<g>
				<defs>
					<polygon id="SVGID_00000090271534509927271350000000850198448379650235_" points="108.91,536.14 109.91,536.14 108.91,537.14 
											"/>
				</defs>
				<defs>
					<polygon id="SVGID_00000118365596934506912260000015014565039625139084_" points="106.91,534.14 105.91,534.14 106.91,533.14 
											"/>
				</defs>
				<clipPath id="SVGID_00000152986072258822503720000008230186271769556645_">
					<use xlink:href="#SVGID_00000090271534509927271350000000850198448379650235_"  style="overflow:visible;"/>
				</clipPath>
				
					<clipPath id="SVGID_00000067921411260797478370000012399070456630626495_" style="clip-path:url(#SVGID_00000152986072258822503720000008230186271769556645_);">
					<use xlink:href="#SVGID_00000118365596934506912260000015014565039625139084_"  style="overflow:visible;"/>
				</clipPath>
			</g>
		</g>
	</g>
	<rect x="107.91" y="651.07" style="fill:#F9F9F9;" width="566.7" height="86.16"/>
	<g>
		<g id="MovieName">
			<g>
				<defs>
					<polygon id="SVGID_00000155832713152799908740000009630016858126077618_" points="108.91,652.07 109.91,652.07 108.91,653.07 
											"/>
				</defs>
				<defs>
					<polygon id="SVGID_00000003790839860666589740000000458249866126757309_" points="106.91,650.07 105.91,650.07 106.91,649.07 
											"/>
				</defs>
				<clipPath id="SVGID_00000132048711970787242470000002506895860914644622_">
					<use xlink:href="#SVGID_00000155832713152799908740000009630016858126077618_"  style="overflow:visible;"/>
				</clipPath>
				
					<clipPath id="SVGID_00000134226198621312329010000004281953641800539570_" style="clip-path:url(#SVGID_00000132048711970787242470000002506895860914644622_);">
					<use xlink:href="#SVGID_00000003790839860666589740000000458249866126757309_"  style="overflow:visible;"/>
				</clipPath>
			</g>
		</g>
	</g>
</g>
</svg>
